<svg version="1.1" xmlns="http://www.w3.org/2000/svg" xmlns:xlink="http://www.w3.org/1999/xlink" width="64.26772" height="53.5252" viewBox="0,0,64.26772,53.5252"><g transform="translate(-211.81252,-143.2107)"><g data-paper-data="{&quot;isPaintingLayer&quot;:true}" fill="#9966ff" fill-rule="nonzero" stroke="none" stroke-width="0.5" stroke-linecap="butt" stroke-linejoin="miter" stroke-miterlimit="10" stroke-dasharray="" stroke-dashoffset="0" style="mix-blend-mode: normal"><path d="M235.64265,176.05076c2.06119,3.58326 -0.10211,10.84804 3.54278,13.44502c5.43322,3.87116 13.32776,2.8963 18.3652,-0.92472c9.29925,-7.0537 9.45689,-24.35056 -4.01423,-27.17369c-5.76015,-1.20715 -12.29493,1.33298 -17.71691,-1.22379c-3.26755,-1.54083 -10.68634,-6.61543 -8.45842,-11.47636c1.92154,-4.19246 6.22202,-4.63748 10.35968,-4.99796c5.55512,-0.48396 11.22332,-1.01068 16.62457,0.57634c3.17834,0.93387 5.79396,3.24723 8.88226,4.4567c1.84819,0.7238 5.71964,1.68515 7.60502,0.58759c1.19696,-0.6968 1.34491,-3.13238 2.72992,-3.13238c2.06867,0 2.63004,1.72923 2.5,3.25c-0.47671,5.57503 -7.01159,5.46466 -11.08261,4.99136c-4.57479,-0.53186 -7.98214,-4.00404 -12.18901,-5.39459c-4.21824,-1.39431 -8.79789,-0.81475 -13.16051,-0.47918c-2.07094,0.15929 -6.05524,-0.10994 -7.44287,1.66561c-0.69573,0.89022 2.43564,3.43602 4.78277,4.9381c5.14264,3.2911 12.18562,-0.33106 17.8828,1.40699c10.25351,3.12806 17.00093,14.15203 13.84563,24.7424c-3.24086,10.87753 -14.2636,17.0607 -25.20596,15.05137c-2.63299,-0.48349 -5.82941,-1.24828 -7.81168,-3.27579c-2.41781,-2.47299 -3.08071,-5.7299 -3.59343,-9.04271c-0.32058,-2.07135 0.03137,-5.37521 -2.00029,-6.61617c-1.39103,-0.84966 -6.89025,-3.5826 -8.44786,-2.31809c-1.05866,0.85945 -3.58786,3.88209 -5.49057,5.40208c-0.24626,0.26646 -0.54979,0.47921 -0.89104,0.6187c-0.29164,0.11922 -0.61083,0.18492 -0.94537,0.18492c-1.38071,0 -2.5,-1.11929 -2.5,-2.5c0,-0.64578 0.24485,-1.23436 0.64678,-1.67799c4.11541,-8.53117 18.27452,-9.6175 23.18335,-1.08376z"/></g></g></svg>