<svg version="1.1" xmlns="http://www.w3.org/2000/svg" xmlns:xlink="http://www.w3.org/1999/xlink" width="25.09035" height="33.47767" viewBox="0,0,25.09035,33.47767"><g transform="translate(-227.45484,-163.26117)"><g data-paper-data="{&quot;isPaintingLayer&quot;:true}" fill-rule="nonzero" stroke="none" stroke-linecap="butt" stroke-linejoin="miter" stroke-miterlimit="10" stroke-dasharray="" stroke-dashoffset="0" style="mix-blend-mode: normal"><path d="M246.7308,168.75002c0.75,0 0.75,0.75 0.75,0.75v0.38462c-0.00317,3.02628 0.23077,6.04764 0.23077,9.07692c0,0 0,0.75 -0.75,0.75c-0.0781,0 -0.14807,-0.00813 -0.21076,-0.02271c-0.15205,0.48425 -0.71232,0.48425 -0.71232,0.48425c-1.45951,0 -3.13505,0.13184 -4.36802,-0.83855c-1.51555,-1.1928 -1.6161,-4.03206 -0.09418,-5.27134c1.17163,-0.95404 3.15891,-0.59932 4.50047,-0.18429c-0.04983,-1.33111 -0.09469,-2.66213 -0.09596,-3.99428v-0.38462c0,0 0,-0.75 0.75,-0.75zM245.80132,175.36538c-0.81036,-0.2748 -2.51549,-0.75555 -3.30063,-0.12086c-0.71257,0.57603 -0.71869,2.35064 0.05967,2.88251c1.02494,0.70036 2.30719,0.54607 3.47814,0.54607c0,0 0.07254,0 0.1725,0.02256c-0.00463,-1.08237 -0.03666,-2.16369 -0.07543,-3.24462z" fill="#000000" stroke-width="0.5"/><path d="M227.45485,196.73885v-33.47767h25.09035v33.47767z" fill="none" stroke-width="0"/></g></g></svg>