<svg version="1.1" xmlns="http://www.w3.org/2000/svg" xmlns:xlink="http://www.w3.org/1999/xlink" width="25.09035" height="33.47767" viewBox="0,0,25.09035,33.47767"><g transform="translate(-227.45484,-163.26117)"><g data-paper-data="{&quot;isPaintingLayer&quot;:true}" fill-rule="nonzero" stroke="none" stroke-linecap="butt" stroke-linejoin="miter" stroke-miterlimit="10" stroke-dasharray="" stroke-dashoffset="0" style="mix-blend-mode: normal"><path d="M241.32664,176.56831c0.10742,1.74071 1.90676,1.7971 3.94262,1.7971c0,0 0.75,0 0.75,0.75c0,0.75 -0.75,0.75 -0.75,0.75c-1.22073,0 -3.37834,0.28661 -4.41201,-0.64282c-1.34796,-1.21202 -1.27911,-4.61953 -0.04832,-5.86126c3.41354,-3.44387 8.10034,3.50238 2.81097,3.50331c-0.60045,-0.05457 -1.1992,-0.13474 -1.79249,-0.2421zM241.5378,175.08339l0.55793,0.06335c0.527,0.09631 1.0586,0.17092 1.59213,0.21944c2.75719,0.00057 -1.37575,-2.7818 -2.0978,-0.45758c-0.01841,0.05927 -0.03583,0.11753 -0.05226,0.17479z" fill="#000000" stroke-width="0.5"/><path d="M227.45485,196.73885v-33.47767h25.09035v33.47767z" fill="none" stroke-width="0"/></g></g></svg>