<svg version="1.1" xmlns="http://www.w3.org/2000/svg" xmlns:xlink="http://www.w3.org/1999/xlink" width="25.09035" height="33.47767" viewBox="0,0,25.09035,33.47767"><g transform="translate(-227.45484,-163.26117)"><g data-paper-data="{&quot;isPaintingLayer&quot;:true}" fill-rule="nonzero" stroke="none" stroke-linecap="butt" stroke-linejoin="miter" stroke-miterlimit="10" stroke-dasharray="" stroke-dashoffset="0" style="mix-blend-mode: normal"><path d="M245.78848,174.34617c0,0.75 -0.75,0.75 -0.75,0.75c-0.39533,0 -0.85116,0 -1.32692,0c0,1.44231 0,2.88462 0,4.32692c0,0 0,0.75 -0.75,0.75c-0.75,0 -0.75,-0.75 -0.75,-0.75c0,-1.06006 -0.1899,-2.68981 -0.24328,-4.32692c-0.35924,0 -0.70106,0 -1.00672,0c0,0 -0.75,0 -0.75,-0.75c0,-0.75 0.75,-0.75 0.75,-0.75c0.33529,0 0.67057,0 1.00586,0c0.1025,-2.63226 0.8565,-4.80845 3.74812,-3.96837l0.54218,0.34914c0,0 0.6,0.45 0.15,1.05c-0.45,0.6 -1.05,0.15 -1.05,0.15l-0.0732,-0.1124c-0.23302,-0.07282 -1.35748,-0.45307 -1.62083,-0.20661c-0.11853,0.11093 0.04788,1.81241 0.04788,2.0267c0,0.23718 0,0.47436 0,0.71154c0.26282,0 0.52564,0 0.78846,0h0.53846c0,0 0.75,0 0.75,0.75z" fill="#000000" stroke-width="0.5"/><path d="M227.45485,196.73885v-33.47767h25.09035v33.47767z" fill="none" stroke-width="0"/></g></g></svg>