<svg version="1.1" xmlns="http://www.w3.org/2000/svg" xmlns:xlink="http://www.w3.org/1999/xlink" width="25.09035" height="33.47767" viewBox="0,0,25.09035,33.47767"><g transform="translate(-227.45484,-163.26117)"><g data-paper-data="{&quot;isPaintingLayer&quot;:true}" fill-rule="nonzero" stroke="none" stroke-linecap="butt" stroke-linejoin="miter" stroke-miterlimit="10" stroke-dasharray="" stroke-dashoffset="0" style="mix-blend-mode: normal"><path d="M245.10118,177.69312c0.06454,-0.66292 0.21511,-1.85824 0.09291,-2.09421c-0.64489,-1.2453 -2.86018,0.74791 -3.21228,1.34291c-0.48762,1.94479 1.28926,1.97963 2.69035,1.25731l0.24197,-0.35523c0,0 0.07001,-0.07866 0.18703,-0.15079zM245.08066,179.65839c-2.66343,1.11732 -5.3023,-0.03494 -4.48851,-3.28117c0.94244,-1.64438 4.18107,-3.93055 5.85958,-1.59586c0.45101,0.62732 0.11499,2.53395 0.12268,3.27024c0.04275,4.09275 -0.51785,5.53747 -4.84638,5.50759c0,0 -0.74998,-0.00528 -0.74471,-0.75526c0.00528,-0.74998 0.75526,-0.74471 0.75526,-0.74471c2.86033,0.02046 3.29733,-0.40636 3.34209,-2.40083z" fill="#000000" stroke-width="0.5"/><path d="M227.45485,196.73885v-33.47767h25.09035v33.47767z" fill="none" stroke-width="0"/></g></g></svg>