<svg version="1.1" xmlns="http://www.w3.org/2000/svg" xmlns:xlink="http://www.w3.org/1999/xlink" width="25.09035" height="33.47767" viewBox="0,0,25.09035,33.47767"><g transform="translate(-227.45484,-163.26117)"><g data-paper-data="{&quot;isPaintingLayer&quot;:true}" fill-rule="nonzero" stroke="none" stroke-linecap="butt" stroke-linejoin="miter" stroke-miterlimit="10" stroke-dasharray="" stroke-dashoffset="0" style="mix-blend-mode: normal"><path d="M245.88465,179.40387c-0.75,0 -0.75,-0.75 -0.75,-0.75v-0.46154c0,-2.93967 -0.14685,-3.77903 -3.00142,-3.13113c-0.01875,1.32499 -0.03704,2.65023 -0.03704,3.97728c0,0 0,0.75 -0.75,0.75c-0.75,0 -0.75,-0.75 -0.75,-0.75c0,-2.72104 0.07692,-5.43461 0.07692,-8.15385v-0.46154c0,0 0,-0.75 0.75,-0.75c0.75,0 0.75,0.75 0.75,0.75v0.46154c0,0.88186 -0.00809,1.7631 -0.01902,2.64418c3.51227,-0.65355 4.48056,0.97073 4.48056,4.66351v0.46154c0,0 0,0.75 -0.75,0.75z" fill="#000000" stroke-width="0.5"/><path d="M227.45485,196.73885v-33.47767h25.09035v33.47767z" fill="none" stroke-width="0"/></g></g></svg>