<svg version="1.1" xmlns="http://www.w3.org/2000/svg" xmlns:xlink="http://www.w3.org/1999/xlink" width="25.09035" height="33.47767" viewBox="0,0,25.09035,33.47767"><g transform="translate(-227.45484,-163.26117)"><g data-paper-data="{&quot;isPaintingLayer&quot;:true}" fill-rule="nonzero" stroke="none" stroke-linecap="butt" stroke-linejoin="miter" stroke-miterlimit="10" stroke-dasharray="" stroke-dashoffset="0" style="mix-blend-mode: normal"><path d="M246.18421,179.56881c-0.53033,0.53033 -1.06066,0 -1.06066,0l-0.27135,-0.30627c-0.3906,-0.67573 -1.76702,-1.80607 -2.54708,-2.76216c0.01233,0.92307 0.02184,1.8462 0.02184,2.76887c0,0 0,0.75 -0.75,0.75c-0.75,0 -0.75,-0.75 -0.75,-0.75c0,-2.66767 -0.07459,-5.33731 -0.07692,-8v-0.15385c0,0 0,-0.75 0.75,-0.75c0.75,0 0.75,0.75 0.75,0.75v0.15385c-0.0011,1.15981 0.01336,2.32134 0.03003,3.4835c0.73939,-0.60285 2.03489,-1.30337 2.36536,-1.50686c0,0 0.63874,-0.39307 1.03182,0.24567c0.39307,0.63874 -0.24567,1.03182 -0.24567,1.03182c-0.59465,0.3657 -1.10268,0.89319 -1.75407,1.14426c-0.13676,0.05271 -0.56174,-0.14619 -0.43309,-0.07598c1.31016,0.71496 2.12562,1.59208 2.90345,2.91507l0.03634,0.00142c0,0 0.53033,0.53033 0,1.06066z" fill="#000000" stroke-width="0.5"/><path d="M227.45485,196.73885v-33.47767h25.09035v33.47767z" fill="none" stroke-width="0"/></g></g></svg>