<svg version="1.1" xmlns="http://www.w3.org/2000/svg" xmlns:xlink="http://www.w3.org/1999/xlink" width="25.09035" height="33.47767" viewBox="0,0,25.09035,33.47767"><g transform="translate(-227.45484,-163.26117)"><g data-paper-data="{&quot;isPaintingLayer&quot;:true}" fill-rule="nonzero" stroke="none" stroke-linecap="butt" stroke-linejoin="miter" stroke-miterlimit="10" stroke-dasharray="" stroke-dashoffset="0" style="mix-blend-mode: normal"><path d="M250.18421,179.41497c-0.53033,0.53033 -1.06066,0 -1.06066,0l-0.34189,-0.46867c-0.18745,-0.64523 -0.51113,-6.43731 -2.14257,-2.89385c-0.10619,0.23064 -0.14876,0.48548 -0.22859,0.72661l0.06698,0.80378c0.0022,0.02338 0.00332,0.04707 0.00332,0.07102c0,0.41421 -0.33579,0.75 -0.75,0.75c-0.37645,0 -0.68812,-0.27735 -0.74182,-0.63886l-0.14836,-0.89018c-0.13882,-0.57334 -1.265,-2.6111 -2.15934,-1.65224c-0.83337,0.89348 -0.43125,2.88246 -0.43125,3.96974c0,0 0,0.75 -0.75,0.75c-0.75,0 -0.75,-0.75 -0.75,-0.75c0,-1.52138 -0.41473,-3.98387 0.95337,-5.10718c1.43058,-1.1746 2.90192,-0.33315 3.80907,0.88444c0.78407,-0.99564 2.35297,-1.83369 3.53748,-1.10645c1.49826,0.91987 0.7316,3.25433 1.16845,4.65215l-0.03419,-0.16097c0,0 0.53033,0.53033 0,1.06066z" fill="#000000" stroke-width="0.5"/><path d="M227.45485,196.73885v-33.47767h25.09035v33.47767z" fill="none" stroke-width="0"/></g></g></svg>