<svg version="1.1" xmlns="http://www.w3.org/2000/svg" xmlns:xlink="http://www.w3.org/1999/xlink" width="25.09035" height="33.47767" viewBox="0,0,25.09035,33.47767"><g transform="translate(-227.45484,-163.26117)"><g data-paper-data="{&quot;isPaintingLayer&quot;:true}" fill-rule="nonzero" stroke="none" stroke-linecap="butt" stroke-linejoin="miter" stroke-miterlimit="10" stroke-dasharray="" stroke-dashoffset="0" style="mix-blend-mode: normal"><path d="M246.26925,179.1731c-0.75,0 -0.75,-0.75 -0.75,-0.75l0.00372,-0.15155c0.13128,-1.29623 -1.0046,-5.71441 -3.14465,-3.05403c-0.60878,0.7568 -0.20522,3.07686 -0.20522,3.97481c0,0 0,0.75 -0.75,0.75c-0.75,0 -0.75,-0.75 -0.75,-0.75c0,-1.42115 -0.41215,-3.75151 0.56401,-4.94827c3.09293,-3.7919 6.0617,1.31075 5.77842,4.17674l0.00372,0.0023c0,0 0,0.75 -0.75,0.75z" fill="#000000" stroke-width="0.5"/><path d="M227.45485,196.73885v-33.47767h25.09035v33.47767z" fill="none" stroke-width="0"/></g></g></svg>