<svg version="1.1" xmlns="http://www.w3.org/2000/svg" xmlns:xlink="http://www.w3.org/1999/xlink" width="25.09035" height="33.47767" viewBox="0,0,25.09035,33.47767"><g transform="translate(-227.45484,-163.26117)"><g data-paper-data="{&quot;isPaintingLayer&quot;:true}" fill-rule="nonzero" stroke="none" stroke-linecap="butt" stroke-linejoin="miter" stroke-miterlimit="10" stroke-dasharray="" stroke-dashoffset="0" style="mix-blend-mode: normal"><path d="M242.24539,179.45949c0.07795,1.14586 0.15849,2.2851 0.15849,3.34822c0,0 0,0.75 -0.75,0.75c-0.75,0 -0.75,-0.75 -0.75,-0.75c0,-2.15385 -0.00043,-4.30769 0,-6.46154c0.0001,-0.50835 -0.01167,-2.40199 0.08255,-2.53928c0.27646,-0.40286 0.91422,-0.37237 1.39804,-0.44049c4.7231,-0.66504 6.3529,5.49214 1.076,6.03653c-0.26886,0.00031 -0.53773,0.00062 -0.80659,0.00093zM242.15179,177.96249l0.50209,-0.05862c0.24396,0.00031 0.48791,0.00062 0.73187,0.00093c0.52422,-0.0502 0.94556,-0.04932 1.44133,-0.29059c2.03254,-0.98917 -0.45135,-2.53557 -1.50646,-2.67891c-0.38678,-0.05255 -1.11617,-0.59226 -1.15313,-0.20368c-0.09603,1.00958 -0.07473,2.10873 -0.0157,3.23088z" fill="#000000" stroke-width="0.5"/><path d="M227.45485,196.73885v-33.47767h25.09035v33.47767z" fill="none" stroke-width="0"/></g></g></svg>