<svg version="1.1" xmlns="http://www.w3.org/2000/svg" xmlns:xlink="http://www.w3.org/1999/xlink" width="25.09035" height="33.47767" viewBox="0,0,25.09035,33.47767"><g transform="translate(-227.45484,-163.26117)"><g data-paper-data="{&quot;isPaintingLayer&quot;:true}" fill-rule="nonzero" stroke="none" stroke-linecap="butt" stroke-linejoin="miter" stroke-miterlimit="10" stroke-dasharray="" stroke-dashoffset="0" style="mix-blend-mode: normal"><path d="M249.03035,180.96969c0.53033,0.53033 0,1.06066 0,1.06066l-0.40793,0.39179c-0.82299,0.57483 -2.36701,1.90742 -3.42454,0.66832c-0.27288,-0.31974 0.24473,-3.14561 0.24444,-3.74429c-0.00019,-0.39013 -0.05584,-0.86776 -0.0904,-1.35107c-1.74709,1.57416 -4.46859,2.24669 -5.04711,-0.80093c-0.70174,-3.69678 3.64906,-5.71504 6.35603,-3.66442c0,0 0.53169,0.42535 0.17658,0.9721c0.06663,0.11206 0.1049,0.24295 0.1049,0.38278v1h-0.20177l0.02934,0.01206c-0.00515,0.01892 -0.01053,0.03786 -0.01614,0.05682c0.43858,2.06689 0.76923,5.06563 -0.13097,6.08199c0.34047,-0.25997 0.8803,-0.66039 1.13944,-0.84222l0.20746,-0.2236c0,0 0.53033,-0.53033 1.06066,0zM244.56635,174.17302c-0.58026,0.01148 -1.1939,0.08662 -1.70196,0.36715c-2.91067,1.60719 0.39575,4.80127 2.03043,2.51685c0.29869,-0.41741 0.27646,-0.98827 0.41008,-1.4842l0.14718,-0.80949c0.01281,-0.07877 0.03789,-0.15342 0.07321,-0.22193c-0.28411,-0.20972 -0.61815,-0.37513 -0.95894,-0.36839z" fill="#000000" stroke-width="0.5"/><path d="M227.45485,196.73885v-33.47767h25.09035v33.47767z" fill="none" stroke-width="0"/></g></g></svg>