<svg version="1.1" xmlns="http://www.w3.org/2000/svg" xmlns:xlink="http://www.w3.org/1999/xlink" width="25.09035" height="33.47767" viewBox="0,0,25.09035,33.47767"><g transform="translate(-227.45484,-163.26117)"><g data-paper-data="{&quot;isPaintingLayer&quot;:true}" fill-rule="nonzero" stroke="none" stroke-linecap="butt" stroke-linejoin="miter" stroke-miterlimit="10" stroke-dasharray="" stroke-dashoffset="0" style="mix-blend-mode: normal"><path d="M246.63465,173.96156c0,0.75 -0.75,0.75 -0.75,0.75l-0.15155,-0.00372c-0.75898,-0.08078 -2.87263,-0.21966 -3.5397,0.2963c-0.17649,0.13651 0.13356,4.19635 0.13356,4.5728c0,0 0,0.75 -0.75,0.75c-0.75,0 -0.75,-0.75 -0.75,-0.75c0,-0.90645 -0.52986,-4.71041 0.13356,-5.4272c0.99882,-1.07919 3.60123,-1.05966 4.92184,-0.93447l0.0023,-0.00372c0,0 0.75,0 0.75,0.75z" fill="#000000" stroke-width="0.5"/><path d="M227.45485,196.73885v-33.47767h25.09035v33.47767z" fill="none" stroke-width="0"/></g></g></svg>