<svg version="1.1" xmlns="http://www.w3.org/2000/svg" xmlns:xlink="http://www.w3.org/1999/xlink" width="25.09035" height="33.47767" viewBox="0,0,25.09035,33.47767"><g transform="translate(-227.45484,-163.26117)"><g data-paper-data="{&quot;isPaintingLayer&quot;:true}" fill-rule="nonzero" stroke="none" stroke-linecap="butt" stroke-linejoin="miter" stroke-miterlimit="10" stroke-dasharray="" stroke-dashoffset="0" style="mix-blend-mode: normal"><path d="M245.95861,173.71854c-0.29544,0.68936 -0.9848,0.39392 -0.9848,0.39392l-0.39011,-0.18469c-0.23202,-0.04764 -0.46403,-0.09529 -0.69605,-0.14293c-5.13732,0.02123 1.82732,1.62825 2.21842,2.40528c1.64539,3.26906 -2.67601,3.6753 -4.60605,3.6753c0,0 -0.75,0 -0.75,-0.75c0,-0.75 0.75,-0.75 0.75,-0.75c0.51282,0 1.02565,-0.00214 1.53846,0c0.70592,0.00294 2.77563,-1.31057 1.43754,-1.73118c-0.93149,-0.2928 -2.30009,0.04569 -3.12093,-0.48509c-0.37022,-0.23939 -0.70422,-0.59012 -0.86484,-1.0007c-0.93611,-2.39303 2.00382,-2.86106 3.54521,-2.8563c0.2808,0.05492 0.56161,0.10984 0.84241,0.16476l0.68681,0.27685c0,0 0.68936,0.29544 0.39392,0.9848z" fill="#000000" stroke-width="0.5"/><path d="M227.45485,196.73885v-33.47767h25.09035v33.47767z" fill="none" stroke-width="0"/></g></g></svg>