<svg version="1.1" xmlns="http://www.w3.org/2000/svg" xmlns:xlink="http://www.w3.org/1999/xlink" width="25.09035" height="33.47767" viewBox="0,0,25.09035,33.47767"><g transform="translate(-227.45484,-163.26117)"><g data-paper-data="{&quot;isPaintingLayer&quot;:true}" fill-rule="nonzero" stroke="none" stroke-linecap="butt" stroke-linejoin="miter" stroke-miterlimit="10" stroke-dasharray="" stroke-dashoffset="0" style="mix-blend-mode: normal"><path d="M245.94233,172.88464c0,0.75 -0.75,0.75 -0.75,0.75h-0.23077c-0.48179,-0.00029 -0.96286,-0.01121 -1.44386,-0.02473c-0.11197,2.42031 0.09413,4.92747 1.89638,5.06627c0,0 0.74692,0.0679 0.67902,0.81482c-0.0679,0.74692 -0.81482,0.67902 -0.81482,0.67902c-3.09009,-0.31312 -3.35338,-3.54153 -3.21009,-6.60061c-0.31728,-0.00703 -0.63481,-0.01169 -0.95278,-0.01169c0,0 -0.75,0 -0.75,-0.75c0,-0.75 0.75,-0.75 0.75,-0.75c0.34934,0 0.69822,0.00575 1.04684,0.0141c0.06293,-0.86774 0.12624,-1.67513 0.12624,-2.34102v-0.23077c0,0 0,-0.75 0.75,-0.75c0.75,0 0.75,0.75 0.75,0.75v0.23077c0,0.55981 -0.08913,1.4167 -0.16951,2.38262c0.44733,0.01222 0.89472,0.02151 1.34259,0.02122h0.23077c0,0 0.75,0 0.75,0.75z" fill="#000000" stroke-width="0.5"/><path d="M227.45485,196.73885v-33.47767h25.09035v33.47767z" fill="none" stroke-width="0"/></g></g></svg>