<svg version="1.1" xmlns="http://www.w3.org/2000/svg" xmlns:xlink="http://www.w3.org/1999/xlink" width="25.09035" height="33.47767" viewBox="0,0,25.09035,33.47767"><g transform="translate(-227.45484,-163.26117)"><g data-paper-data="{&quot;isPaintingLayer&quot;:true}" fill-rule="nonzero" stroke="none" stroke-linecap="butt" stroke-linejoin="miter" stroke-miterlimit="10" stroke-dasharray="" stroke-dashoffset="0" style="mix-blend-mode: normal"><path d="M245.75852,172.8292c0.67082,0.33541 0.33541,1.00623 0.33541,1.00623l-0.07726,0.03457c-0.20097,2.39071 -1.55195,8.84524 -5.12339,4.60935c-0.89266,-1.05874 -0.45095,-3.68644 -0.45095,-4.97932c0,0 0,-0.75 0.75,-0.75c0.75,0 0.75,0.75 0.75,0.75c0,0.83807 -0.40856,3.41526 0.16444,4.0976c1.54864,1.84415 2.23289,-0.85612 2.33842,-1.93225c0.06251,-0.63743 0.0239,-1.28163 0.07666,-1.91994l0.23044,-0.58082c0,0 0.33541,-0.67082 1.00623,-0.33541z" fill="#000000" stroke-width="0.5"/><path d="M227.45485,196.73885v-33.47767h25.09035v33.47767z" fill="none" stroke-width="0"/></g></g></svg>