<svg version="1.1" xmlns="http://www.w3.org/2000/svg" xmlns:xlink="http://www.w3.org/1999/xlink" width="25.09035" height="33.47767" viewBox="0,0,25.09035,33.47767"><g transform="translate(-227.45484,-163.26117)"><g data-paper-data="{&quot;isPaintingLayer&quot;:true}" fill-rule="nonzero" stroke="none" stroke-linecap="butt" stroke-linejoin="miter" stroke-miterlimit="10" stroke-dasharray="" stroke-dashoffset="0" style="mix-blend-mode: normal"><path d="M246.7494,173.00078c0.57617,0.48014 0.09603,1.0563 0.09603,1.0563l-0.26442,0.25994c-0.41943,1.0481 -1.7524,5.67819 -3.17039,5.70212c-1.12908,0.01906 -2.86788,-4.57586 -3.09569,-5.39871c0,0 -0.19734,-0.72357 0.52623,-0.92091c0.72357,-0.19734 0.92091,0.52623 0.92091,0.52623c0.12204,0.45564 1.38734,3.19062 1.65087,4.04175c0.17673,-0.921 1.59759,-4.06294 1.77536,-4.50757l0.50481,-0.66313c0,0 0.48014,-0.57617 1.0563,-0.09603z" fill="#000000" stroke-width="0.5"/><path d="M227.45485,196.73885v-33.47767h25.09035v33.47767z" fill="none" stroke-width="0"/></g></g></svg>