<svg version="1.1" xmlns="http://www.w3.org/2000/svg" xmlns:xlink="http://www.w3.org/1999/xlink" width="25.09035" height="33.47767" viewBox="0,0,25.09035,33.47767"><g transform="translate(-227.45484,-163.26117)"><g data-paper-data="{&quot;isPaintingLayer&quot;:true}" fill-rule="nonzero" stroke="none" stroke-linecap="butt" stroke-linejoin="miter" stroke-miterlimit="10" stroke-dasharray="" stroke-dashoffset="0" style="mix-blend-mode: normal"><path d="M227.45485,196.73885v-33.47767h25.09035v33.47767z" fill="none" stroke-width="0"/><path d="M247.79171,173.12116c0.75,0 0.75,0.75 0.75,0.75v0.33333c0,1.68485 0.43408,5.83486 -2.32471,5.5796c-0.61305,-0.05672 -1.3514,-0.6693 -1.83711,-1.39005c-0.60788,1.28254 -1.68641,1.82372 -2.95185,0.67411c-1.42978,-1.29891 -1.38634,-3.63261 -1.38634,-5.36366c0,0 0,-0.75 0.75,-0.75c0.75,0 0.75,0.75 0.75,0.75c0,1.88331 0.8473,6.80197 1.83333,2.521v-0.771v0c0,-0.41421 0.33579,-0.75 0.75,-0.75c0.35158,0 0.64666,0.24192 0.72786,0.56838l0.24571,0.90095l-0.10266,0.028c1.05043,1.69426 2.04794,3.20304 2.04576,-0.41399c0,0 0,-1.53056 0,-1.58333v-0.33333c0,0 0,-0.75 0.75,-0.75z" fill="#000000" stroke-width="0.5"/></g></g></svg>