<svg version="1.1" xmlns="http://www.w3.org/2000/svg" xmlns:xlink="http://www.w3.org/1999/xlink" width="25.09035" height="33.47767" viewBox="0,0,25.09035,33.47767"><g transform="translate(-227.45484,-163.26117)"><g data-paper-data="{&quot;isPaintingLayer&quot;:true}" fill-rule="nonzero" stroke="none" stroke-linecap="butt" stroke-linejoin="miter" stroke-miterlimit="10" stroke-dasharray="" stroke-dashoffset="0" style="mix-blend-mode: normal"><path d="M246.29698,172.52151c0.67082,0.33541 0.33541,1.00623 0.33541,1.00623l-0.29434,0.50261c-0.72158,0.72077 -1.38887,1.48964 -2.04641,2.26803c0.52379,0.83227 1.05609,1.65745 1.65454,2.44395l0.00725,-0.00341c0,0 0.53033,0.53033 0,1.06066c-0.53033,0.53033 -1.06066,0 -1.06066,0l-0.14659,-0.15725c-0.52011,-0.70158 -0.99205,-1.4263 -1.45425,-2.15618c-0.62689,0.74005 -1.26541,1.47098 -1.95388,2.15958c0,0 -0.53033,0.53033 -1.06066,0c-0.53033,-0.53033 0,-1.06066 0,-1.06066c0.77093,-0.77078 1.47925,-1.59413 2.17862,-2.42412c-0.59194,-0.9298 -1.20578,-1.85035 -1.92106,-2.72446c0,0 -0.47493,-0.58047 0.10554,-1.0554c0.58047,-0.47493 1.0554,0.10554 1.0554,0.10554c0.65132,0.79617 1.21776,1.63628 1.76109,2.4865c0.58498,-0.6872 1.18149,-1.36384 1.82042,-2.00344l0.01336,-0.11277c0,0 0.33541,-0.67082 1.00623,-0.33541z" fill="#000000" stroke-width="0.5"/><path d="M227.45485,196.73885v-33.47767h25.09035v33.47767z" fill="none" stroke-width="0"/></g></g></svg>