<svg version="1.1" xmlns="http://www.w3.org/2000/svg" xmlns:xlink="http://www.w3.org/1999/xlink" width="25.09035" height="33.47767" viewBox="0,0,25.09035,33.47767"><g transform="translate(-227.45484,-163.26117)"><g data-paper-data="{&quot;isPaintingLayer&quot;:true}" fill-rule="nonzero" stroke="none" stroke-linecap="butt" stroke-linejoin="miter" stroke-miterlimit="10" stroke-dasharray="" stroke-dashoffset="0" style="mix-blend-mode: normal"><path d="M241.19233,172.6731c0.57196,0 0.70774,0.43619 0.73997,0.64327c0.59128,1.28316 1.47762,2.38666 2.19783,3.59917c0.70384,-1.03676 1.3801,-2.09408 2.03447,-3.18601l0.23077,-0.38462c0,0 0.38587,-0.64312 1.02899,-0.25725c0.64312,0.38587 0.25725,1.02899 0.25725,1.02899l-0.23077,0.38462c-1.52132,2.53266 -3.15598,4.89074 -4.97418,7.22843c0,0 -0.46046,0.59201 -1.05247,0.13156c-0.59201,-0.46046 -0.13156,-1.05247 -0.13156,-1.05247c0.65836,-0.84646 1.29213,-1.6948 1.90469,-2.55335c-0.08387,-0.08922 -0.12687,-0.16909 -0.12687,-0.16909c-0.79302,-1.47652 -1.87799,-2.74663 -2.56347,-4.28174l-0.06464,-0.38153c0,0 0,-0.75 0.75,-0.75z" fill="#000000" stroke-width="0.5"/><path d="M227.45485,196.73885v-33.47767h25.09035v33.47767z" fill="none" stroke-width="0"/></g></g></svg>