<svg version="1.1" xmlns="http://www.w3.org/2000/svg" xmlns:xlink="http://www.w3.org/1999/xlink" width="25.09035" height="33.47767" viewBox="0,0,25.09035,33.47767"><g transform="translate(-227.45484,-163.26117)"><g data-paper-data="{&quot;isPaintingLayer&quot;:true}" fill-rule="nonzero" stroke="none" stroke-linecap="butt" stroke-linejoin="miter" stroke-miterlimit="10" stroke-dasharray="" stroke-dashoffset="0" style="mix-blend-mode: normal"><path d="M241.28848,174.26925c0,-0.75 0.75,-0.75 0.75,-0.75h0.69231c1.10595,0.00083 1.92089,-0.05735 2.80918,0.0368l0.01348,-0.18874l1.07075,0.07648c0.3922,0.02439 0.70274,0.35019 0.70274,0.74854c0,0.20711 -0.08395,0.39461 -0.21967,0.53033l-0.53846,0.53846l-0.00945,-0.00945l-0.02069,0.03796c-0.42443,0.34032 -2.39888,2.52009 -3.35644,3.2411c0.23035,-0.05036 0.48028,-0.08841 0.62548,-0.08841c0.97436,0 1.94872,0 2.92308,0c0,0 0.75,0 0.75,0.75c0,0.75 -0.75,0.75 -0.75,0.75c-0.80833,0 -4.82868,0.46365 -5.22845,-0.31796c-0.76524,-1.49618 1.38506,-3.39701 2.92122,-4.59693c-0.57363,0.0449 -1.18629,-0.00853 -1.69277,-0.00818h-0.69231c0,0 -0.75,0 -0.75,-0.75z" fill="#000000" stroke-width="0.5"/><path d="M227.45485,196.73885v-33.47767h25.09035v33.47767z" fill="none" stroke-width="0"/></g></g></svg>