<svg version="1.1" xmlns="http://www.w3.org/2000/svg" xmlns:xlink="http://www.w3.org/1999/xlink" width="25.09035" height="33.47767" viewBox="0,0,25.09035,33.47767"><g transform="translate(-227.45484,-163.26117)"><g data-paper-data="{&quot;isPaintingLayer&quot;:true}" fill-rule="nonzero" stroke="none" stroke-linecap="butt" stroke-linejoin="miter" stroke-miterlimit="10" stroke-dasharray="" stroke-dashoffset="0" style="mix-blend-mode: normal"><path d="M241.88465,168.13464c0.75,0 0.75,0.75 0.75,0.75c0,0.5641 0,1.51282 0,2.07692c0,0 0,0.75 -0.75,0.75c-0.75,0 -0.75,-0.75 -0.75,-0.75c0,-0.5641 0,-1.12821 0,-1.69231v-0.38462c0,0 0,-0.75 0.75,-0.75z" fill="#000000" stroke-width="0.5"/><path d="M244.88465,167.3654c0.75,0 0.75,0.75 0.75,0.75c0,0.79487 0,2.05128 0,2.84615c0,0 0,0.75 -0.75,0.75c-0.75,0 -0.75,-0.75 -0.75,-0.75c0,-0.79487 0,-1.58974 0,-2.38462v-0.46154c0,0 0,-0.75 0.75,-0.75z" fill="#000000" stroke-width="0.5"/><path d="M227.45485,196.73885v-33.47767h25.09035v33.47767z" fill="none" stroke-width="0"/></g></g></svg>