<svg version="1.1" xmlns="http://www.w3.org/2000/svg" xmlns:xlink="http://www.w3.org/1999/xlink" width="25.09035" height="33.47767" viewBox="0,0,25.09035,33.47767"><g transform="translate(-227.45484,-163.26117)"><g data-paper-data="{&quot;isPaintingLayer&quot;:true}" fill-rule="nonzero" stroke="none" stroke-linecap="butt" stroke-linejoin="miter" stroke-miterlimit="10" stroke-dasharray="" stroke-dashoffset="0" style="mix-blend-mode: normal"><path d="M245.11771,179.63091c-0.74628,-0.07463 -0.67165,-0.82091 -0.67165,-0.82091l0.07413,-0.73196c-0.00031,-0.24396 -0.00062,-0.48791 -0.00093,-0.73187c0,0 0,-0.04608 0.01142,-0.1154c-0.01142,-0.0693 -0.01142,-0.11537 -0.01142,-0.11537c0,-0.21154 0,-0.42308 0,-0.63462c-0.52635,0 -1.05357,0 -1.57692,0c0,0.21154 0,0.42308 0,0.63462c0,0 0,0.04609 -0.01142,0.11541c0.01142,0.06929 0.01142,0.11536 0.01142,0.11536c0,0.28205 0,0.5641 0,0.84615l-0.09149,0.5317c0,0 -0.14709,0.73544 -0.88252,0.58835c-0.73544,-0.14709 -0.58835,-0.88252 -0.58835,-0.88252l0.06236,-0.23753c0,-0.28205 0,-0.5641 0,-0.84615c0,0 0,-0.04609 0.01142,-0.11541c-0.01142,-0.06929 -0.01142,-0.11536 -0.01142,-0.11536c0,-0.21154 0,-0.42308 0,-0.63462c-0.26531,0 -0.52835,0 -0.78846,0c0,0 -0.75,0 -0.75,-0.75c0,-0.75 0.75,-0.75 0.75,-0.75c0.26282,0 0.52564,0 0.78846,0c0,-0.52564 0,-1.05128 0,-1.57692c-0.27263,0 -0.53649,0 -0.78846,0c0,0 -0.75,0 -0.75,-0.75c0,-0.75 0.75,-0.75 0.75,-0.75c0.26282,0 0.52564,0 0.78846,0c0,-0.51923 0,-1.03846 0,-1.55769l0.29659,-0.60725c0,0 0.53033,-0.53033 1.06066,0c0.32849,0.32849 0.25004,0.65698 0.14275,0.85944c0,0.43517 0,0.87034 0,1.30551c0.52564,0 1.05128,0 1.57692,0c0,-0.64744 0,-1.29487 0,-1.94231l0.82692,-0.75c0,0 0.75,0 0.75,0.75c0,0.14888 -0.02955,0.2682 -0.07692,0.36384c0,0.52616 0,1.05231 0,1.57847c0.13462,0 0.26923,0 0.40385,0h0.69231c0,0 0.75,0 0.75,0.75c0,0.75 -0.75,0.75 -0.75,0.75c-0.34569,0 -0.71376,0 -1.09615,0c0,0.52564 0,1.05128 0,1.57692c0.51923,0 1.03846,0 1.55769,0h0.23077c0,0 0.75,0 0.75,0.75l-0.00001,-0.00001c0,0.75 -0.75,0.75 -0.75,0.75c-0.58387,0 -1.18252,0 -1.78846,0c0,0.21154 0,0.42308 0,0.63462c0,0 0,0.04608 -0.01142,0.1154c0.01142,0.0693 0.01142,0.11537 0.01142,0.11537c-0.00031,0.26886 -0.00062,0.53773 -0.00093,0.80659l-0.07971,0.8065c0,0 -0.07463,0.74628 -0.82091,0.67165zM244.51927,173.40387c-0.52445,0 -1.05588,0 -1.57692,0c0,0.52564 0,1.05128 0,1.57692c0.52564,0 1.05128,0 1.57692,0c0,-0.52564 0,-1.05128 0,-1.57692z" fill="#000000" stroke-width="0.5"/><path d="M227.45485,196.73885v-33.47767h25.09035v33.47767z" fill="none" stroke-width="0"/></g></g></svg>