<svg version="1.1" xmlns="http://www.w3.org/2000/svg" xmlns:xlink="http://www.w3.org/1999/xlink" width="25.09035" height="33.47767" viewBox="0,0,25.09035,33.47767"><g transform="translate(-227.45484,-163.26117)"><g data-paper-data="{&quot;isPaintingLayer&quot;:true}" fill-rule="nonzero" stroke="none" stroke-linecap="butt" stroke-linejoin="miter" stroke-miterlimit="10" stroke-dasharray="" stroke-dashoffset="0" style="mix-blend-mode: normal"><path d="M243.27573,181.24511c-0.32849,-0.32849 -0.25004,-0.65698 -0.14275,-0.85944c0,-0.21244 0,-0.42488 0,-0.63732c-0.76578,-0.0272 -1.53498,-0.26327 -2.29658,-0.7744c-0.22217,-0.05705 -0.54957,-0.22518 -0.54957,-0.72071c0,-0.75 0.75,-0.75 0.75,-0.75l0.52692,0.15c0.51097,0.40039 1.03883,0.58522 1.56923,0.61628c0,-0.9302 0,-1.8604 0,-2.7906c-1.159,-0.4678 -2.27733,-1.03683 -2.51125,-1.87163c-0.60063,-2.14352 0.82761,-2.8995 2.51125,-3.12218c0,-0.38498 0,-0.76996 0,-1.15495c0,0 0,-0.75 0.75,-0.75c0.75,0 0.75,0.75 0.75,0.75c0,0.35835 0,0.71671 0,1.07506c0.6735,0.00656 1.30466,0.05857 1.77944,0.1011c0,0 0.74692,0.0679 0.67902,0.81482c-0.0679,0.74692 -0.81482,0.67902 -0.81482,0.67902c-0.24134,-0.02223 -0.90309,-0.02162 -1.64364,0.03901c0,0.82838 0,1.65677 0,2.48515c0.79151,0.0457 1.59258,0.07777 2.22987,0.58411c1.33124,1.05769 0.8921,2.17687 0.074,3.30503c-0.7484,0.50751 -1.52044,0.91111 -2.30387,1.1373c0,0.36236 0,0.72473 0,1.08709l-0.29659,0.60725c0,0 -0.53033,0.53033 -1.06066,0zM245.90603,177.32379c0.40385,-0.49543 -0.27685,-0.86704 -1.27305,-1.2648c0,0.64604 0,1.29208 0,1.93812c0.43476,-0.17029 0.86187,-0.4066 1.27305,-0.67332zM242.75739,174.08865c0.12028,0.07641 0.24584,0.1384 0.37559,0.18903c0,-0.67426 0,-1.34851 0,-2.02277c-1.21879,0.27918 -1.96725,0.82259 -0.37559,1.83374z" data-paper-data="{&quot;index&quot;:null}" fill="#000000" stroke-width="0.5"/><path d="M227.45485,196.73885v-33.47767h25.09035v33.47767z" fill="none" stroke-width="0"/></g></g></svg>