<svg version="1.1" xmlns="http://www.w3.org/2000/svg" xmlns:xlink="http://www.w3.org/1999/xlink" width="25.09035" height="33.47767" viewBox="0,0,25.09035,33.47767"><g transform="translate(-227.45484,-163.26117)"><g data-paper-data="{&quot;isPaintingLayer&quot;:true}" fill-rule="nonzero" stroke="none" stroke-linecap="butt" stroke-linejoin="miter" stroke-miterlimit="10" stroke-dasharray="" stroke-dashoffset="0" style="mix-blend-mode: normal"><path d="" fill="#000000" stroke-width="0.5"/><path d="M244.78553,177.83853c4.47741,-1.29274 -1.45757,-11.47334 -2.54164,-4.55053c-0.14075,1.55915 -0.64597,4.94206 1.70728,4.92569c0.04348,-0.05731 0.0942,-0.10423 0.14604,-0.14241l0.0438,-0.10463c0,0 0.30913,-0.22081 0.64452,-0.12812zM244.6167,179.40042l-0.57821,0.31113c-3.65399,-0.09152 -3.53054,-3.90244 -3.28234,-6.6149c0.11681,-0.67077 0.30218,-1.34387 0.61896,-1.94654c1.11941,-2.12968 3.42409,-2.45796 5.06969,-0.61035c2.1631,2.42862 1.84511,8.05827 -1.72076,8.84954c0,0 -0.04175,0.00835 -0.10734,0.01112z" fill="#000000" stroke-width="0.5"/><path d="M227.45485,196.73885v-33.47767h25.09035v33.47767z" fill="none" stroke-width="0"/></g></g></svg>