<svg version="1.1" xmlns="http://www.w3.org/2000/svg" xmlns:xlink="http://www.w3.org/1999/xlink" width="25.09035" height="33.47767" viewBox="0,0,25.09035,33.47767"><g transform="translate(-227.45484,-163.26117)"><g data-paper-data="{&quot;isPaintingLayer&quot;:true}" fill-rule="nonzero" stroke="none" stroke-linecap="butt" stroke-linejoin="miter" stroke-miterlimit="10" stroke-dasharray="" stroke-dashoffset="0" style="mix-blend-mode: normal"><path d="" fill="#000000" stroke-width="0.5"/><path d="M242.98081,178.34617c0,-0.98659 -0.23556,-4.23203 0.08283,-5.81814c-0.3309,0.18882 -0.67978,0.34605 -1.0404,0.45959c0,0 -0.71837,0.21551 -0.93388,-0.50286c-0.21551,-0.71837 0.50286,-0.93388 0.50286,-0.93388c0.42289,-0.11807 0.82704,-0.3309 1.17039,-0.60486l0.51479,-0.51479v0c0.13572,-0.13572 0.32322,-0.21967 0.53033,-0.21967c0.41421,0 0.75,0.33579 0.75,0.75v0.84615h-0.12657c0.3117,2.14657 0.04965,4.34981 0.04965,6.53846l0.05453,0.12579c0,0 0.00433,0.01732 0.00898,0.04729c0.29293,0 0.58586,0 0.8788,0h0.23077c0,0 0.75,0 0.75,0.75c0,0.75 -0.75,0.75 -0.75,0.75c-1.25641,0 -2.74359,0 -4,0c0,0 -0.75,0 -0.75,-0.75c0,-0.75 0.75,-0.75 0.75,-0.75c0.45401,0 0.90802,0 1.36203,0z" fill="#000000" stroke-width="0.5"/><path d="M227.45485,196.73885v-33.47767h25.09035v33.47767z" fill="none" stroke-width="0"/></g></g></svg>