<svg version="1.1" xmlns="http://www.w3.org/2000/svg" xmlns:xlink="http://www.w3.org/1999/xlink" width="25.09035" height="33.47767" viewBox="0,0,25.09035,33.47767"><g transform="translate(-227.45484,-163.26117)"><g data-paper-data="{&quot;isPaintingLayer&quot;:true}" fill-rule="nonzero" stroke="none" stroke-linecap="butt" stroke-linejoin="miter" stroke-miterlimit="10" stroke-dasharray="" stroke-dashoffset="0" style="mix-blend-mode: normal"><path d="M246.94233,179.34617c0,0.75 -0.75,0.75 -0.75,0.75c-0.25641,0 -0.74359,0 -1,0c-0.71662,0 -1.87521,0.23466 -2.54465,0.0723c-4.79998,-1.16411 1.87075,-5.20978 2.43243,-6.85036c0.54102,-1.58026 -2.17913,-0.9789 -2.61678,-0.06925c0,0 -0.36423,0.65562 -1.01985,0.29139c-0.65562,-0.36423 -0.29139,-1.01985 -0.29139,-1.01985c1.0082,-1.6814 4.57858,-2.83101 5.37344,-0.1608c0.65009,2.18391 -1.83991,3.73662 -3.21207,4.925c-0.22589,0.19563 -0.94255,1.3671 -0.87623,1.42312c0.27708,0.23405 2.33052,-0.11155 2.75509,-0.11155c0.25641,0 0.51282,0 0.76923,0h0.23077c0,0 0.75,0 0.75,0.75z" fill="#000000" stroke-width="0.5"/><path d="M227.45485,196.73885v-33.47767h25.09035v33.47767z" fill="none" stroke-width="0"/></g></g></svg>