<svg version="1.1" xmlns="http://www.w3.org/2000/svg" xmlns:xlink="http://www.w3.org/1999/xlink" width="25.09035" height="33.47767" viewBox="0,0,25.09035,33.47767"><g transform="translate(-227.45484,-163.26117)"><g data-paper-data="{&quot;isPaintingLayer&quot;:true}" fill-rule="nonzero" stroke="none" stroke-linecap="butt" stroke-linejoin="miter" stroke-miterlimit="10" stroke-dasharray="" stroke-dashoffset="0" style="mix-blend-mode: normal"><path d="M241.02854,171.60952c-0.26334,-0.70225 0.4389,-0.96559 0.4389,-0.96559l0.8041,-0.2748c0.60747,-0.05805 1.2158,-0.17363 1.82155,0.02583c2.24146,0.73807 2.01404,3.01988 0.84034,4.2213c1.86463,0.96028 2.96074,3.11718 0.50792,4.74713c-1.03268,0.68624 -2.46591,0.50201 -3.63365,0.50201c0,0 -0.75,0 -0.75,-0.75c0,-0.75 0.75,-0.75 0.75,-0.75c0.84446,0 2.06688,0.20653 2.82789,-0.26722c2.11255,-1.31512 -0.72779,-2.58614 -1.94437,-2.46448l-0.80659,-0.74907l0.03358,-0.03437c0.28481,-0.28115 0.76225,-0.5068 1.21982,-0.72796c0.61768,0.02843 1.24056,0.20822 1.7954,0.49396c-0.7582,0.77612 -1.91129,1.10138 -3.0488,0.26837c0.01087,-0.01155 0.02207,-0.02301 0.03358,-0.03437l0.69829,-0.7147c0.17232,-0.01723 0.34672,-0.02131 0.52153,-0.01326c0.47533,-0.22975 0.92921,-0.45466 1.12343,-0.73192c0.96021,-1.37072 -1.0899,-1.60782 -1.84067,-1.5287l-0.42667,0.18674c0,0 -0.70225,0.26334 -0.96559,-0.4389z" fill="#000000" stroke-width="0.5"/><path d="M227.45485,196.73885v-33.47767h25.09035v33.47767z" fill="none" stroke-width="0"/></g></g></svg>