<svg version="1.1" xmlns="http://www.w3.org/2000/svg" xmlns:xlink="http://www.w3.org/1999/xlink" width="25.09035" height="33.47767" viewBox="0,0,25.09035,33.47767"><g transform="translate(-227.45484,-163.26117)"><g data-paper-data="{&quot;isPaintingLayer&quot;:true}" fill-rule="nonzero" stroke="none" stroke-linecap="butt" stroke-linejoin="miter" stroke-miterlimit="10" stroke-dasharray="" stroke-dashoffset="0" style="mix-blend-mode: normal"><path d="M244.97042,170.76788c0.73214,0.1627 0.56944,0.89484 0.56944,0.89484l-0.13599,0.52961c0,0.8971 0,1.79419 0,2.69129c0.37538,-0.0857 0.70484,-0.1911 0.9454,-0.29972l0.38153,-0.06464c0,0 0.75,0 0.75,0.75c0,0.58495 -0.45623,0.71368 -0.65702,0.74201c-0.40254,0.16235 -0.89092,0.30016 -1.4199,0.39499c0,0.85177 0,1.70354 0,2.55531c0,0 0,0.75 -0.75,0.75c-0.75,0 -0.75,-0.75 -0.75,-0.75c0,-0.80573 0,-1.61145 0,-2.41718c-1.41868,0.0052 -2.83574,-0.36519 -3.5369,-1.40266c-0.36608,-0.54166 0.47521,-3.31592 0.54102,-3.95099c0,0 0.07851,-0.74588 0.82439,-0.66737c0.74588,0.07851 0.66737,0.82439 0.66737,0.82439c-0.11328,1.06101 -1.40027,2.32986 -0.68975,3.12593c0.43163,0.48359 1.29832,0.63358 2.19387,0.60569c0,-0.96235 0,-1.92471 0,-2.88706l0.17171,-0.85501c0,0 0.1627,-0.73214 0.89484,-0.56944z" fill="#000000" stroke-width="0.5"/><path d="M227.45485,196.73885v-33.47767h25.09035v33.47767z" fill="none" stroke-width="0"/></g></g></svg>