<svg version="1.1" xmlns="http://www.w3.org/2000/svg" xmlns:xlink="http://www.w3.org/1999/xlink" width="25.09035" height="33.47767" viewBox="0,0,25.09035,33.47767"><g transform="translate(-227.45484,-163.26117)"><g data-paper-data="{&quot;isPaintingLayer&quot;:true}" fill-rule="nonzero" stroke="none" stroke-linecap="butt" stroke-linejoin="miter" stroke-miterlimit="10" stroke-dasharray="" stroke-dashoffset="0" style="mix-blend-mode: normal"><path d="M246.26113,178.79958l-0.4565,0.3858c-1.46746,0.64892 -2.59867,0.52439 -4.15076,0.52618c0,0 -0.27148,0 -0.48777,-0.16333c-0.2056,-0.03122 -0.64685,-0.16524 -0.64685,-0.74052c0,-0.75 0.75,-0.75 0.75,-0.75c0.38346,0.00152 0.90838,0.09738 1.45426,0.1742c0.83703,0.01582 1.56802,-0.01444 2.46642,-0.41481c0.00194,-0.00236 0.00387,-0.00472 0.00579,-0.00709l0.00473,-0.0711c0,0 0.03737,-0.03737 0.10219,-0.08235c0.56613,-0.95152 -0.09024,-2.56753 -1.14525,-2.81532c-0.67559,-0.15867 -3.18657,0.5815 -3.49017,0.33704c-0.53163,-0.42806 -0.18775,-1.69946 -0.0674,-2.29065c-0.01484,-3.13984 2.41051,-2.13764 4.82327,-2.13764h0.76923c0,0 0.75,0 0.75,0.75c0,0.75 -0.75,0.75 -0.75,0.75h-0.76923c-0.85392,0 -1.76301,0.07209 -2.61236,-0.00365c-0.19642,-0.01752 -0.59251,-0.18745 -0.82199,-0.29785c0.27511,0.25711 0.10457,0.89014 0.10379,1.08695c-0.04474,0.22744 -0.64576,0.65763 -0.45516,0.52572c1.67712,-1.16064 4.66598,0.16144 5.19942,1.96439c0.44486,1.50355 0.20174,2.44602 -0.41489,3.0369c-0.06901,0.14535 -0.16077,0.23711 -0.16077,0.23711z" fill="#000000" stroke-width="0.5"/><path d="M227.45485,196.73885v-33.47767h25.09035v33.47767z" fill="none" stroke-width="0"/></g></g></svg>