<svg version="1.1" xmlns="http://www.w3.org/2000/svg" xmlns:xlink="http://www.w3.org/1999/xlink" width="25.09035" height="33.47767" viewBox="0,0,25.09035,33.47767"><g transform="translate(-227.45484,-163.26117)"><g data-paper-data="{&quot;isPaintingLayer&quot;:true}" fill-rule="nonzero" stroke="none" stroke-linecap="butt" stroke-linejoin="miter" stroke-miterlimit="10" stroke-dasharray="" stroke-dashoffset="0" style="mix-blend-mode: normal"><path d="M242.17619,176.15111c-0.00143,0.02411 -0.00267,0.04824 -0.00373,0.07239c-0.0181,0.41115 -0.17236,1.40667 0.26581,1.69751c1.58376,1.05124 2.83378,0.51438 3.15851,-1.22028c-0.07677,-1.47846 -2.01861,-1.67292 -2.87412,-0.7473zM242.69836,174.18877c1.89656,-0.85199 4.11397,0.22248 4.39722,2.57208c-0.48605,2.726 -3.11575,4.40497 -5.61072,2.31818c-3.15172,-2.6361 1.03067,-7.96593 3.55672,-9.11052c0,0 0.68536,-0.3046 0.98996,0.38075c0.3046,0.68536 -0.38075,0.98996 -0.38075,0.98996c-1.27557,0.55276 -2.34753,1.59773 -2.95242,2.84954z" fill="#000000" stroke-width="0.5"/><path d="M227.45485,196.73885v-33.47767h25.09035v33.47767z" fill="none" stroke-width="0"/></g></g></svg>