<svg version="1.1" xmlns="http://www.w3.org/2000/svg" xmlns:xlink="http://www.w3.org/1999/xlink" width="25.09035" height="33.47767" viewBox="0,0,25.09035,33.47767"><g transform="translate(-227.45484,-163.26117)"><g data-paper-data="{&quot;isPaintingLayer&quot;:true}" fill-rule="nonzero" stroke="none" stroke-linecap="butt" stroke-linejoin="miter" stroke-miterlimit="10" stroke-dasharray="" stroke-dashoffset="0" style="mix-blend-mode: normal"><path d="M245.64266,172.17674c-1.06189,0.12927 -3.27707,0.20285 -4.23029,0.22204c-0.09729,0.05033 -0.21975,0.08201 -0.37388,0.08201c-0.75,0 -0.75,-0.75 -0.75,-0.75l0.75,-0.82692c1.04987,0 5.97282,-0.60349 6.50741,0.39611c0.1082,0.20232 -0.56247,1.60674 -0.73951,2.03013c-0.74761,1.78794 -1.8662,3.67958 -2.02049,5.61681c0,0 -0.06228,0.74741 -0.80969,0.68513c-0.74741,-0.06228 -0.68513,-0.80969 -0.68513,-0.80969c0.16697,-1.92996 1.13601,-3.49806 1.81595,-5.2821c0.03632,-0.09531 0.24984,-0.91242 0.53563,-1.36352z" fill="#000000" stroke-width="0.5"/><path d="M227.45485,196.73885v-33.47767h25.09035v33.47767z" fill="none" stroke-width="0"/></g></g></svg>