<svg version="1.1" xmlns="http://www.w3.org/2000/svg" xmlns:xlink="http://www.w3.org/1999/xlink" width="25.09035" height="33.47767" viewBox="0,0,25.09035,33.47767"><g transform="translate(-227.45484,-163.26117)"><g data-paper-data="{&quot;isPaintingLayer&quot;:true}" fill-rule="nonzero" stroke="none" stroke-linecap="butt" stroke-linejoin="miter" stroke-miterlimit="10" stroke-dasharray="" stroke-dashoffset="0" style="mix-blend-mode: normal"><path d="M243.4621,173.91719c0.22153,-0.24409 0.57639,-0.24409 0.57639,-0.24409c2.48262,0.02424 2.28306,-2.27926 -0.15687,-2.04211c-2.19055,0.21291 -2.17518,1.87413 -0.78626,2.36724c0.10779,-0.02891 0.21928,-0.05556 0.3345,-0.0798zM241.55682,174.72334c-1.58944,-1.48199 -1.08291,-4.2792 2.177,-4.58506c3.38423,-0.31752 4.40042,2.73917 2.71393,4.23726c0.12445,0.06184 0.24652,0.1376 0.36579,0.23021c2.42657,1.88385 0.6267,4.9852 -1.93847,5.25663c-3.74543,0.39631 -5.67149,-3.31537 -3.31826,-5.13903zM243.14949,175.53275c-2.4097,0.78436 -0.78448,3.02748 1.59088,2.83569c1.33922,-0.10813 2.40918,-1.49834 1.13846,-2.58953c-0.41114,-0.35305 -1.36178,-0.14427 -1.84033,-0.14427c-0.31734,-0.00561 -0.61393,-0.04106 -0.88901,-0.10189z" fill="#000000" stroke-width="0.5"/><path d="M227.45485,196.73885v-33.47767h25.09035v33.47767z" fill="none" stroke-width="0"/></g></g></svg>