<svg version="1.1" xmlns="http://www.w3.org/2000/svg" xmlns:xlink="http://www.w3.org/1999/xlink" width="25.09035" height="33.47767" viewBox="0,0,25.09035,33.47767"><g transform="translate(-227.45484,-163.26117)"><g data-paper-data="{&quot;isPaintingLayer&quot;:true}" fill-rule="nonzero" stroke="none" stroke-linecap="butt" stroke-linejoin="miter" stroke-miterlimit="10" stroke-dasharray="" stroke-dashoffset="0" style="mix-blend-mode: normal"><path d="M246.2707,173.33967c-0.05554,-0.24755 -0.14292,-0.48121 -0.2655,-0.69398c-0.98303,-1.70624 -3.58491,-0.75488 -4.07254,0.74369c0.0063,1.96337 3.17795,1.92771 3.91176,0.43871l0.06172,-0.12502c0,0 0.12152,-0.24304 0.36456,-0.3634zM246.00051,175.75597c-2.15549,1.39489 -5.55378,0.4426 -5.54848,-2.60685c0.90353,-2.67427 5.07129,-4.32226 6.85054,-1.25631c1.78705,3.07939 -1.00317,7.89506 -4.34099,7.9726c0,0 -0.75,0 -0.75,-0.75c0,-0.75 0.75,-0.75 0.75,-0.75c1.29246,0.04619 2.47594,-1.1795 3.03894,-2.60944z" fill="#000000" stroke-width="0.5"/><path d="M227.45485,196.73885v-33.47767h25.09035v33.47767z" fill="none" stroke-width="0"/></g></g></svg>