<svg version="1.1" xmlns="http://www.w3.org/2000/svg" xmlns:xlink="http://www.w3.org/1999/xlink" width="25.09035" height="33.47767" viewBox="0,0,25.09035,33.47767"><g transform="translate(-227.45484,-163.26117)"><g data-paper-data="{&quot;isPaintingLayer&quot;:true}" fill-rule="nonzero" stroke="none" stroke-linecap="butt" stroke-linejoin="miter" stroke-miterlimit="10" stroke-dasharray="" stroke-dashoffset="0" style="mix-blend-mode: normal"><path d="M243.17983,178.77191c0.65118,0.3721 0.27908,1.02329 0.27908,1.02329l-0.37322,0.63488c-0.46438,0.5732 -1.01199,1.08528 -1.60606,1.52265c0,0 -0.60655,0.44113 -1.04768,-0.16542c-0.44113,-0.60655 0.16542,-1.04768 0.16542,-1.04768c0.49136,-0.35207 0.94298,-0.77173 1.31702,-1.24658l0.24216,-0.44204c0,0 0.3721,-0.65118 1.02329,-0.27908z" fill="#000000" stroke-width="0.5"/><path d="M241.75003,174.96156c0,-0.41421 0.33579,-0.75 0.75,-0.75c0.41421,0 0.75,0.33579 0.75,0.75c0,0.41421 -0.33579,0.75 -0.75,0.75c-0.41421,0 -0.75,-0.33579 -0.75,-0.75z" fill="#000000" stroke-width="0.5"/><path d="M227.45485,196.73885v-33.47767h25.09035v33.47767z" fill="none" stroke-width="0"/></g></g></svg>