<svg version="1.1" xmlns="http://www.w3.org/2000/svg" xmlns:xlink="http://www.w3.org/1999/xlink" width="25.09035" height="33.47767" viewBox="0,0,25.09035,33.47767"><g transform="translate(-227.45484,-163.26117)"><g data-paper-data="{&quot;isPaintingLayer&quot;:true}" fill-rule="nonzero" stroke="none" stroke-linecap="butt" stroke-linejoin="miter" stroke-miterlimit="10" stroke-dasharray="" stroke-dashoffset="0" style="mix-blend-mode: normal"><path d="M241.51925,179.1154c0,-0.41421 0.33579,-0.75 0.75,-0.75c0.41421,0 0.75,0.33579 0.75,0.75c0,0.41421 -0.33579,0.75 -0.75,0.75c-0.41421,0 -0.75,-0.33579 -0.75,-0.75z" fill="#000000" stroke-width="0.5"/><path d="M240.18368,171.99297c-0.41603,-0.62404 0.20801,-1.04006 0.20801,-1.04006l0.34219,-0.21517c1.7373,-0.74852 6.46306,-0.32038 5.57022,2.79213c-0.81413,2.83811 -3.43869,0.11546 -3.43869,2.97015c0,0 0,0.75 -0.75,0.75c-0.75,0 -0.75,-0.75 -0.75,-0.75c0,-0.28146 -0.01565,-1.70119 0.06582,-1.8457c0.80972,-1.43632 3.11198,-0.40238 3.41856,-1.49184c0.45112,-1.60305 -2.88857,-1.34053 -3.5067,-1.05402l-0.11935,0.09253c0,0 -0.62404,0.41603 -1.04006,-0.20801z" fill="#000000" stroke-width="0.5"/><path d="M227.45485,196.73885v-33.47767h25.09035v33.47767z" fill="none" stroke-width="0"/></g></g></svg>