<svg version="1.1" xmlns="http://www.w3.org/2000/svg" xmlns:xlink="http://www.w3.org/1999/xlink" width="25.09035" height="33.47767" viewBox="0,0,25.09035,33.47767"><g transform="translate(-227.45483,-163.26116)"><g data-paper-data="{&quot;isPaintingLayer&quot;:true}" fill-rule="nonzero" stroke="none" stroke-linecap="butt" stroke-linejoin="miter" stroke-miterlimit="10" stroke-dasharray="" stroke-dashoffset="0" style="mix-blend-mode: normal"><path d="M227.45483,196.73883v-33.47767h25.09035v33.47767z" fill="none" stroke-width="0"/><path d="M241.57692,179.40385c-0.75,0 -0.75,-0.75 -0.75,-0.75l0.00372,-0.53617c0.19317,-1.93027 1.78943,-10.75988 5.50738,-7.30186c1.89257,1.76026 1.45044,6.09841 1.45044,8.37648c0,0 0,0.75 -0.75,0.75c-0.75,0 -0.75,-0.75 -0.75,-0.75c0,-0.86492 0.06994,-1.97137 0.04926,-3.09615c-1.24845,0 -2.49689,0 -3.74534,0c-0.12144,0.73114 -0.19879,1.46629 -0.26918,2.17078l0.00372,0.38691c0,0 0,0.75 -0.75,0.75zM245.27736,171.87648c-0.54938,-0.68882 -1.38708,0.49283 -1.59372,0.85209c-0.33379,0.58032 -0.57856,1.21199 -0.76368,1.86758c1.1071,0 2.2142,0 3.3213,0c-0.12753,-1.04489 -0.40252,-2.01581 -0.96389,-2.71967z" fill="#000000" stroke-width="0.5"/></g></g></svg>