<svg version="1.1" xmlns="http://www.w3.org/2000/svg" xmlns:xlink="http://www.w3.org/1999/xlink" width="25.09035" height="33.47767" viewBox="0,0,25.09035,33.47767"><g transform="translate(-227.45483,-163.26117)"><g data-paper-data="{&quot;isPaintingLayer&quot;:true}" fill-rule="nonzero" stroke="none" stroke-linecap="butt" stroke-linejoin="miter" stroke-miterlimit="10" stroke-dasharray="" stroke-dashoffset="0" style="mix-blend-mode: normal"><path d="M227.45483,196.73884v-33.47767h25.09035v33.47767z" fill="none" stroke-width="0"/><path d="M241.03846,179.5577c-0.20373,0 -0.35212,-0.05534 -0.4602,-0.13596c-0.08062,-0.10808 -0.13596,-0.25647 -0.13596,-0.4602c-0.15385,-0.21403 -0.15385,-0.15385 -0.15385,-0.15385l0.0121,-0.51878c0.32914,-1.78096 0.90496,-3.35721 0.83499,-5.21309c-0.03082,-0.81742 -0.35621,-1.80689 0.20895,-2.55772c0.35569,-0.47254 2.6777,-0.41076 3.22041,-0.29303c3.01507,0.65409 2.75916,3.91077 1.19709,5.05226c1.37892,0.81549 2.10124,2.13156 0.11272,3.66758c-1.28544,0.99294 -3.1632,0.76662 -4.68242,0.76662c0,0 -0.39788,0 -0.61404,-0.2898c-0.05515,-0.04113 -0.0998,-0.08885 -0.13596,-0.13915c0,-0.75 0.75,-1.07105 0.75,-1.07105c0.21012,0 0.42744,0.00603 0.64879,0.01294c-0.02315,0.11042 -0.04485,0.2213 -0.06473,0.33276l0.0121,0.25045c0,0 0,0.75 -0.75,0.75zM242.59084,174.92362c0.2011,-0.06612 0.42047,-0.1409 0.64639,-0.22305l0.08258,-0.25655c0.13279,0.01822 0.26899,0.04154 0.40716,0.06977c1.07951,-0.43312 2.11865,-1.0087 1.8944,-1.59018c-0.26357,-0.68343 -3.04574,-1.97975 -3.19664,-1.36478c-0.14997,0.61119 0.24393,2.33945 0.208,2.91742c-0.00936,0.15053 -0.0236,0.29957 -0.04189,0.44737zM242.47647,175.62023c-0.17605,0.87825 -0.45134,1.72657 -0.63534,2.60427c0.88158,0.02754 1.82715,0.06916 2.6371,-0.1999c2.45407,-0.81522 -0.02896,-1.91896 -1.25955,-2.08398z" fill="#000000" stroke-width="0.5"/></g></g></svg>