<svg version="1.1" xmlns="http://www.w3.org/2000/svg" xmlns:xlink="http://www.w3.org/1999/xlink" width="25.09035" height="33.47767" viewBox="0,0,25.09035,33.47767"><g transform="translate(-227.45483,-163.26117)"><g data-paper-data="{&quot;isPaintingLayer&quot;:true}" fill-rule="nonzero" stroke="none" stroke-linecap="butt" stroke-linejoin="miter" stroke-miterlimit="10" stroke-dasharray="" stroke-dashoffset="0" style="mix-blend-mode: normal"><path d="M227.45483,196.73884v-33.47767h25.09035v33.47767z" fill="none" stroke-width="0"/><path d="M247.41802,172.62825c-0.43593,0.6103 -1.04623,0.17437 -1.04623,0.17437l-0.43794,-0.3241c-2.76233,-1.44685 -5.5482,2.75124 -3.49987,4.89549c0.92828,0.97175 2.40214,0.68369 3.60451,0.68369c0,0 0.75,0 0.75,0.75c0,0.75 -0.75,0.75 -0.75,0.75c-1.67846,0 -3.42865,0.21102 -4.70319,-1.16246c-3.17486,-3.42136 1.04492,-9.29973 5.26937,-7.25836l0.63898,0.44514c0,0 0.6103,0.43593 0.17437,1.04623z" fill="#000000" stroke-width="0.5"/></g></g></svg>