<svg version="1.1" xmlns="http://www.w3.org/2000/svg" xmlns:xlink="http://www.w3.org/1999/xlink" width="25.09035" height="33.47767" viewBox="0,0,25.09035,33.47767"><g transform="translate(-227.45484,-163.26117)"><g data-paper-data="{&quot;isPaintingLayer&quot;:true}" fill-rule="nonzero" stroke="none" stroke-linecap="butt" stroke-linejoin="miter" stroke-miterlimit="10" stroke-dasharray="" stroke-dashoffset="0" style="mix-blend-mode: normal"><path d="M227.45485,196.73885v-33.47767h25.09035v33.47767z" fill="none" stroke-width="0"/><path d="M241.57794,179.65887c-0.08533,0.033 -0.18716,0.05269 -0.30868,0.05269c-0.75,0 -0.75,-0.75 -0.75,-0.75c0,-1.42213 -0.80362,-6.81954 0.12596,-7.95449c1.82545,-2.22872 5.42288,0.88379 6.09668,2.61735c1.02844,2.64597 -0.56582,4.09697 -2.42311,5.6889c-0.60239,0.176 -1.2102,0.33717 -1.82553,0.46059l-0.14069,0.053c0,0 -0.47135,0.15712 -0.77465,-0.16805zM241.99889,178.36597l0.2002,-0.06292c0.47032,-0.09378 0.93916,-0.19566 1.40524,-0.30864c1.27359,-1.19324 2.44686,-1.9601 1.73074,-3.84956c-0.45644,-1.20429 -1.15811,-1.5964 -2.29978,-2.00917c-0.36986,-0.13372 -1.00535,-0.66534 -1.142,-0.29655c-0.52616,1.42 -0.00667,4.6289 0.1056,6.52685z" fill="#000000" stroke-width="0.5"/></g></g></svg>