<svg version="1.1" xmlns="http://www.w3.org/2000/svg" xmlns:xlink="http://www.w3.org/1999/xlink" width="25.09035" height="33.47767" viewBox="0,0,25.09035,33.47767"><g transform="translate(-227.45483,-163.26117)"><g data-paper-data="{&quot;isPaintingLayer&quot;:true}" fill-rule="nonzero" stroke="none" stroke-linecap="butt" stroke-linejoin="miter" stroke-miterlimit="10" stroke-dasharray="" stroke-dashoffset="0" style="mix-blend-mode: normal"><path d="M227.45483,196.73884v-33.47767h25.09035v33.47767z" fill="none" stroke-width="0"/><path d="M246.71155,174.8077c0,0.75 -0.75,0.75 -0.75,0.75c-1.11142,0 -2.54996,0 -3.71226,0c-0.09637,1.13743 -0.19132,2.70269 0.31947,3.06286c0.43364,0.30576 3.92408,-0.10132 4.46971,-0.10132c0,0 0.75,0 0.75,0.75c0,0.75 -0.75,0.75 -0.75,0.75c-0.9422,0 -4.44058,0.48327 -5.2226,-0.10132c-1.77785,-1.329 -0.98894,-5.22191 -0.98894,-7.18714c0,-0.39757 -0.04398,-1.91859 0.20232,-2.12777c0.93166,-0.79126 3.91019,-0.30334 5.09903,-0.38872l0.75864,-0.07594c0,0 0.74628,-0.07463 0.82091,0.67165c0.07463,0.74628 -0.67165,0.82091 -0.67165,0.82091l-0.77982,0.07791c-1.21439,0.0863 -3.03141,-0.32883 -4.13174,-0.08103c-0.36467,0.08212 0.20232,0.7292 0.20232,1.103c0,0.44231 0,0.88462 0,1.32692c1.08333,0 2.16667,0 3.25,0h0.38462c0,0 0.75,0 0.75,0.75z" fill="#000000" stroke-width="0.5"/></g></g></svg>