<svg version="1.1" xmlns="http://www.w3.org/2000/svg" xmlns:xlink="http://www.w3.org/1999/xlink" width="25.09035" height="33.47767" viewBox="0,0,25.09035,33.47767"><g transform="translate(-227.45483,-163.26117)"><g data-paper-data="{&quot;isPaintingLayer&quot;:true}" fill-rule="nonzero" stroke="none" stroke-linecap="butt" stroke-linejoin="miter" stroke-miterlimit="10" stroke-dasharray="" stroke-dashoffset="0" style="mix-blend-mode: normal"><path d="M227.45483,196.73884v-33.47767h25.09035v33.47767z" fill="none" stroke-width="0"/><path d="M246.63463,175.42309c0,0.75 -0.75,0.75 -0.75,0.75l-0.38232,-0.00372c-1.08617,-0.11001 -2.16354,-0.0932 -3.25077,-0.00497c-0.00048,0.98367 -0.00152,1.96734 -0.00152,2.951c0,0 0,0.75 -0.75,0.75c-0.75,0 -0.75,-0.75 -0.75,-0.75c0,-2.11355 0.21831,-4.36206 0.00365,-6.46456c-0.05735,-0.56169 -0.47852,-1.57887 -0.12667,-2.07661c0.91381,-1.29268 4.39302,-0.65126 5.7938,-0.5128l0.07922,-0.00372c0,0 0.75,0 0.75,0.75c0,0.75 -0.75,0.75 -0.75,0.75l-0.22847,-0.00372c-0.50722,-0.05137 -4.19649,-0.48612 -4.36005,-0.20511c-0.00772,0.01326 0.33814,1.81424 0.33852,1.9973c0.00091,0.43795 0.0014,0.87589 0.00162,1.31384c1.1371,-0.08549 2.26297,-0.09557 3.39993,0.0168l0.23306,-0.00372c0,0 0.75,0 0.75,0.75z" fill="#000000" stroke-width="0.5"/></g></g></svg>