<svg version="1.1" xmlns="http://www.w3.org/2000/svg" xmlns:xlink="http://www.w3.org/1999/xlink" width="25.09035" height="33.47767" viewBox="0,0,25.09035,33.47767"><g transform="translate(-227.45483,-163.26117)"><g data-paper-data="{&quot;isPaintingLayer&quot;:true}" fill-rule="nonzero" stroke="none" stroke-linecap="butt" stroke-linejoin="miter" stroke-miterlimit="10" stroke-dasharray="" stroke-dashoffset="0" style="mix-blend-mode: normal"><path d="M227.45483,196.73884v-33.47767h25.09035v33.47767z" fill="none" stroke-width="0"/><path d="M243.28846,175.19232c0,-0.75 0.75,-0.75 0.75,-0.75h0.07692c0.87231,0 3.21059,-0.32671 3.8596,0.31909c2.10627,2.09586 -1.70929,5.0208 -3.43543,5.02613c-8.20278,-0.8787 -3.70889,-13.87884 3.40159,-10.02007c0,0 0.65562,0.36423 0.29139,1.01985c-0.36423,0.65562 -1.01985,0.29139 -1.01985,0.29139c-4.9986,-2.86445 -8.40408,6.69004 -2.59841,7.2107c0.92574,0.00383 1.4592,-0.00698 1.79782,-0.97305c0.17711,-0.50528 0.97333,-1.39029 0.45906,-1.53928c-0.55126,-0.15971 -2.08281,0.16524 -2.75578,0.16524h-0.07692c0,0 -0.75,0 -0.75,-0.75z" fill="#000000" stroke-width="0.5"/></g></g></svg>