<svg version="1.1" xmlns="http://www.w3.org/2000/svg" xmlns:xlink="http://www.w3.org/1999/xlink" width="25.09035" height="33.47767" viewBox="0,0,25.09035,33.47767"><g transform="translate(-227.45483,-163.26117)"><g data-paper-data="{&quot;isPaintingLayer&quot;:true}" fill-rule="nonzero" stroke="none" stroke-linecap="butt" stroke-linejoin="miter" stroke-miterlimit="10" stroke-dasharray="" stroke-dashoffset="0" style="mix-blend-mode: normal"><path d="M227.45483,196.73884v-33.47767h25.09035v33.47767z" fill="none" stroke-width="0"/><path d="M246.34618,170.75001c0.75,0 0.75,0.75 0.75,0.75l-0.00372,0.30999c0.23312,2.3586 0.08065,4.78391 0.08065,7.15155c0,0 0,0.75 -0.75,0.75c-0.75,0 -0.75,-0.75 -0.75,-0.75c0,-1.17534 0.04132,-2.36724 0.05147,-3.55769c-1.11142,0 -2.6647,0 -3.85917,0c0,1.29482 0,2.58875 0,3.86538c0,0 0,0.75 -0.75,0.75c-0.75,0 -0.75,-0.75 -0.75,-0.75c0,-2.69231 0,-5.38462 0,-8.07692v-0.07692c0,0 0,-0.75 0.75,-0.75c0.75,0 0.75,0.75 0.75,0.75c0,0.92252 0,1.85407 0,2.78846c1.10897,0 2.21795,0 3.32692,0h0.52312c-0.01588,-0.65193 -0.05038,-1.30113 -0.11555,-1.9446l-0.00372,-0.45924c0,0 0,-0.75 0.75,-0.75z" fill="#000000" stroke-width="0.5"/></g></g></svg>