<svg version="1.1" xmlns="http://www.w3.org/2000/svg" xmlns:xlink="http://www.w3.org/1999/xlink" width="25.09035" height="33.47767" viewBox="0,0,25.09035,33.47767"><g transform="translate(-227.45483,-163.26117)"><g data-paper-data="{&quot;isPaintingLayer&quot;:true}" fill-rule="nonzero" stroke="none" stroke-linecap="butt" stroke-linejoin="miter" stroke-miterlimit="10" stroke-dasharray="" stroke-dashoffset="0" style="mix-blend-mode: normal"><path d="M227.45483,196.73884v-33.47767h25.09035v33.47767z" fill="none" stroke-width="0"/><path d="M246.09618,179.42309c0,0.75 -0.75,0.75 -0.75,0.75c-1.41026,0 -2.97436,0 -4.38462,0c0,0 -0.75,0 -0.75,-0.75c0,-0.75 0.75,-0.75 0.75,-0.75c0.33986,0 0.67973,0 1.01959,0c0.00372,-2.50394 0.03053,-5.00838 -0.20641,-7.5c-0.33329,0 -0.65877,0 -0.96702,0c0,0 -0.75,0 -0.75,-0.75c0,-0.75 0.75,-0.75 0.75,-0.75c1.12821,0 2.25641,0 3.38462,0h0.23077c0,0 0.75,0 0.75,0.75c0,0.75 -0.75,0.75 -0.75,0.75c-0.3622,0 -0.74818,0 -1.14268,0c0.22231,2.49322 0.20343,4.99539 0.20065,7.5c0.57042,0 1.14084,0 1.71127,0h0.15385c0,0 0.75,0 0.75,0.75z" fill="#000000" stroke-width="0.5"/></g></g></svg>