<svg version="1.1" xmlns="http://www.w3.org/2000/svg" xmlns:xlink="http://www.w3.org/1999/xlink" width="25.09035" height="33.47767" viewBox="0,0,25.09035,33.47767"><g transform="translate(-227.45483,-163.26117)"><g data-paper-data="{&quot;isPaintingLayer&quot;:true}" fill-rule="nonzero" stroke="none" stroke-linecap="butt" stroke-linejoin="miter" stroke-miterlimit="10" stroke-dasharray="" stroke-dashoffset="0" style="mix-blend-mode: normal"><path d="M227.45483,196.73884v-33.47767h25.09035v33.47767z" fill="none" stroke-width="0"/><path d="M246.03846,170.75001c0.64103,0 1.35897,0 2,0c0,0 0.75,0 0.75,0.75c0,0.75 -0.75,0.75 -0.75,0.75c-0.50609,0 -1.01217,0 -1.51826,0c-0.1147,0.35145 -0.25932,0.71402 -0.27075,1.04801c-0.05453,1.59232 0.39954,3.84355 -0.40803,5.27c-1.15119,2.03342 -4.68693,0.97776 -5.61242,-0.54993c0,0 -0.36423,-0.65562 0.29139,-1.01985c0.65562,-0.36423 1.01985,0.29139 1.01985,0.29139c0.29859,0.63865 2.68278,1.41104 3.00296,0.52699c0.64562,-1.78262 -0.36877,-3.98827 0.30325,-5.71736c0.05532,-0.14233 -0.73063,0.22768 -2.1926,0.22768h-0.46154c0,0 -0.75,0 -0.75,-0.75c0,-0.75 0.75,-0.75 0.75,-0.75h0.46154c0.59289,0 2.23068,-0.22833 3.1966,-0.05073c0.10788,-0.02619 0.18801,-0.02619 0.18801,-0.02619z" fill="#000000" stroke-width="0.5"/></g></g></svg>