<svg version="1.1" xmlns="http://www.w3.org/2000/svg" xmlns:xlink="http://www.w3.org/1999/xlink" width="25.09035" height="33.47767" viewBox="0,0,25.09035,33.47767"><g transform="translate(-227.45483,-163.26117)"><g data-paper-data="{&quot;isPaintingLayer&quot;:true}" fill-rule="nonzero" stroke="none" stroke-linecap="butt" stroke-linejoin="miter" stroke-miterlimit="10" stroke-dasharray="" stroke-dashoffset="0" style="mix-blend-mode: normal"><path d="M246.91119,179.2233c-0.56944,0.48809 -1.05754,-0.08135 -1.05754,-0.08135l-0.45653,-0.53268c-0.65454,-0.74804 -2.93128,-2.61182 -3.4548,-3.81087c0,1.36207 0,2.72415 0,4.08622c0,0 0,0.75 -0.75,0.75c-0.75,0 -0.75,-0.75 -0.75,-0.75c0,-2.53846 0,-5.07692 0,-7.61538l0.09149,-0.5317c0,0 0.14709,-0.73544 0.88252,-0.58835c0.73544,0.14709 0.58835,0.88252 0.58835,0.88252l-0.06236,0.23753c0,0.90617 0,1.81235 0,2.71852c0.59387,-1.12663 3.47699,-3.01884 4.21766,-3.66757c0,0 0.56443,-0.49388 1.05831,0.07055c0.49388,0.56443 -0.07055,1.05831 -0.07055,1.05831c-1.20918,1.05692 -2.73216,2.13501 -3.83157,3.10065c-0.28703,0.25211 0.67929,0.36141 0.97285,0.60589c0.85388,0.71112 1.50564,1.63013 2.23696,2.46592l0.46655,0.54425c0,0 0.48809,0.56944 -0.08135,1.05754z" fill="#000000" stroke-width="0.5"/><path d="M227.45483,196.73884v-33.47767h25.09035v33.47767z" fill="none" stroke-width="0"/></g></g></svg>