<svg version="1.1" xmlns="http://www.w3.org/2000/svg" xmlns:xlink="http://www.w3.org/1999/xlink" width="25.09035" height="33.47767" viewBox="0,0,25.09035,33.47767"><g transform="translate(-227.45483,-163.26117)"><g data-paper-data="{&quot;isPaintingLayer&quot;:true}" fill-rule="nonzero" stroke="none" stroke-linecap="butt" stroke-linejoin="miter" stroke-miterlimit="10" stroke-dasharray="" stroke-dashoffset="0" style="mix-blend-mode: normal"><path d="M241.50002,170.75001c0.75,0 0.75,0.75 0.75,0.75v0.46154c0,1.88123 -0.54161,4.61271 -0.15551,6.38028c0.07947,0.36382 0.72542,-0.2072 1.09782,-0.2072c0.89744,0 1.79487,0 2.69231,0c0,0 0.75,0 0.75,0.75c0,0.75 -0.75,0.75 -0.75,0.75c-0.80354,0 -4.33121,0.45318 -4.82526,-0.2072c-1.01901,-1.3621 -0.30936,-5.73574 -0.30936,-7.46587v-0.46154c0,0 0,-0.75 0.75,-0.75z" fill="#000000" stroke-width="0.5"/><path d="M227.45483,196.73884v-33.47767h25.09035v33.47767z" fill="none" stroke-width="0"/></g></g></svg>