<svg version="1.1" xmlns="http://www.w3.org/2000/svg" xmlns:xlink="http://www.w3.org/1999/xlink" width="25.09035" height="33.47767" viewBox="0,0,25.09035,33.47767"><g transform="translate(-227.45483,-163.26117)"><g data-paper-data="{&quot;isPaintingLayer&quot;:true}" fill-rule="nonzero" stroke="none" stroke-linecap="butt" stroke-linejoin="miter" stroke-miterlimit="10" stroke-dasharray="" stroke-dashoffset="0" style="mix-blend-mode: normal"><path d="M248.28533,179.09037c-0.74421,0.09303 -0.83723,-0.65118 -0.83723,-0.65118l-0.08271,-0.70841c0,-1.11569 0.0754,-2.25696 -0.0708,-3.36587c-0.04873,-0.36964 -0.12118,-1.17852 -0.1501,-1.65131c-0.28649,1.04724 -2.57558,3.94606 -3.23746,3.90942c-0.37144,-0.02056 -1.19697,-1.41542 -1.77595,-2.6635c0.04357,1.66573 -0.03492,3.34804 -0.03492,5.00203c0,0 0,0.75 -0.75,0.75c-0.75,0 -0.75,-0.75 -0.75,-0.75c0,-2.25527 0.14854,-4.56344 -0.07599,-6.80879l0.01202,-0.03736h-0.01295v-0.76923c0,-0.41421 0.33579,-0.75 0.75,-0.75c0.22659,0 0.4297,0.10048 0.56723,0.25931l0.53567,0.61219l-0.10833,0.09479c0.70105,0.62986 1.19464,1.34437 1.74174,2.3494c0.05797,0.10649 0.12883,0.26961 0.19054,0.44324c0.13641,-0.24561 0.31328,-0.49797 0.41901,-0.6835c0.36839,-0.64643 1.6484,-2.84867 2.7537,-2.68419c1.97923,0.29453 1.4966,5.39135 1.4966,6.74336l0.07113,0.52236c0,0 0.09303,0.74421 -0.65118,0.83723z" fill="#000000" stroke-width="0.5"/><path d="M227.45483,196.73884v-33.47767h25.09035v33.47767z" fill="none" stroke-width="0"/></g></g></svg>