<svg version="1.1" xmlns="http://www.w3.org/2000/svg" xmlns:xlink="http://www.w3.org/1999/xlink" width="25.09035" height="33.47767" viewBox="0,0,25.09035,33.47767"><g transform="translate(-227.45483,-163.26117)"><g data-paper-data="{&quot;isPaintingLayer&quot;:true}" fill-rule="nonzero" stroke="none" stroke-linecap="butt" stroke-linejoin="miter" stroke-miterlimit="10" stroke-dasharray="" stroke-dashoffset="0" style="mix-blend-mode: normal"><path d="M247.4231,171.0577c0.75,0 0.75,0.75 0.75,0.75v0.23077c0,1.60122 0.68821,6.3262 -1.11615,7.2684c-0.56177,0.29334 -1.65866,-1.24602 -1.91625,-1.57471c-0.71349,-0.91042 -2.30578,-2.40952 -3.1366,-3.71581c0.05782,1.59486 0.01515,3.19699 0.01515,4.79135c0,0 0,0.75 -0.75,0.75c-0.75,0 -0.75,-0.75 -0.75,-0.75c0,-1.94849 0.07073,-3.91223 -0.07392,-5.85561l-0.0752,-0.75203c-0.00312,-0.02779 -0.00473,-0.05604 -0.00473,-0.08467c0,-0.41421 0.33579,-0.75 0.75,-0.75c0.17157,0 0.32969,0.05761 0.45606,0.15455l0.91702,0.68776l-0.10925,0.14567c1.06641,0.73189 1.83988,1.63128 2.72809,2.86037c0.25159,0.34816 1.04604,1.3782 1.21356,1.59257c0.04579,0.05859 0.09658,0.14838 0.147,0.25193c-0.22222,-1.47791 0.20522,-3.96984 0.20522,-5.01978v-0.23077c0,0 0,-0.75 0.75,-0.75z" fill="#000000" stroke-width="0.5"/><path d="M227.45483,196.73884v-33.47767h25.09035v33.47767z" fill="none" stroke-width="0"/></g></g></svg>