<svg version="1.1" xmlns="http://www.w3.org/2000/svg" xmlns:xlink="http://www.w3.org/1999/xlink" width="25.09035" height="33.47767" viewBox="0,0,25.09035,33.47767"><g transform="translate(-227.45483,-163.26117)"><g data-paper-data="{&quot;isPaintingLayer&quot;:true}" fill-rule="nonzero" stroke="none" stroke-linecap="butt" stroke-linejoin="miter" stroke-miterlimit="10" stroke-dasharray="" stroke-dashoffset="0" style="mix-blend-mode: normal"><path d="M245.06148,178.28592c3.9138,-0.46161 2.31559,-8.84284 -1.88706,-5.71965c-0.29727,0.22092 -1.04115,0.90544 -1.2135,1.30064c-0.29211,0.66981 -0.09836,1.64761 -0.04722,2.35097c0.43451,0.85052 0.89237,1.74265 1.87894,1.84239l0.70737,-0.00256c0,0 0.3393,0 0.56147,0.22822zM243.78234,179.5555l-0.11341,-0.00035c-1.76058,-0.35214 -2.42762,-1.36488 -3.19798,-2.92685c-0.10651,-1.03424 -0.32576,-2.34501 0.10662,-3.34134c0.2897,-0.66753 1.14011,-1.51091 1.70957,-1.93013c6.52218,-4.80136 9.54959,8.84603 2.00559,8.42973c0,0 -0.30383,-0.0217 -0.5104,-0.23107z" fill="#000000" stroke-width="0.5"/><path d="M227.45483,196.73884v-33.47767h25.09035v33.47767z" fill="none" stroke-width="0"/></g></g></svg>