<svg version="1.1" xmlns="http://www.w3.org/2000/svg" xmlns:xlink="http://www.w3.org/1999/xlink" width="25.09035" height="33.47767" viewBox="0,0,25.09035,33.47767"><g transform="translate(-227.45483,-163.26117)"><g data-paper-data="{&quot;isPaintingLayer&quot;:true}" fill-rule="nonzero" stroke="none" stroke-linecap="butt" stroke-linejoin="miter" stroke-miterlimit="10" stroke-dasharray="" stroke-dashoffset="0" style="mix-blend-mode: normal"><path d="M242.27463,175.9371c-0.00466,1.06027 -0.02461,2.12148 -0.02461,3.17829c0,0 0,0.75 -0.75,0.75c-0.75,0 -0.75,-0.75 -0.75,-0.75c0,-2.34454 -1.11264,-7.95437 1.51835,-8.51518c2.02456,-0.43155 6.06873,2.06738 4.00465,4.34103c-0.73183,0.80614 -2.23915,0.89518 -3.23684,0.99736l-0.69001,0.00372c0,0 -0.02733,0 -0.07155,-0.00522zM242.2675,174.4484c0.0484,-0.00609 0.07868,-0.00609 0.07868,-0.00609l0.54076,0.00372c0.23842,-0.02318 0.47985,-0.0252 0.71525,-0.06954c0.37093,-0.06987 0.73735,-0.16466 1.09916,-0.27221c2.16105,-0.6424 -2.26817,-2.81957 -2.73389,-2.03031c-0.28053,0.47542 0.26428,1.08012 0.28214,1.63185c0.00801,0.24729 0.01382,0.49484 0.01789,0.74258z" fill="#000000" stroke-width="0.5"/><path d="M227.45483,196.73884v-33.47767h25.09035v33.47767z" fill="none" stroke-width="0"/></g></g></svg>