<svg version="1.1" xmlns="http://www.w3.org/2000/svg" xmlns:xlink="http://www.w3.org/1999/xlink" width="25.09035" height="33.47767" viewBox="0,0,25.09035,33.47767"><g transform="translate(-227.45483,-163.26117)"><g data-paper-data="{&quot;isPaintingLayer&quot;:true}" fill-rule="nonzero" stroke="none" stroke-linecap="butt" stroke-linejoin="miter" stroke-miterlimit="10" stroke-dasharray="" stroke-dashoffset="0" style="mix-blend-mode: normal"><path d="M250.59613,178.57053c0.23717,0.71151 -0.47434,0.94868 -0.47434,0.94868l-0.28604,0.09302c-1.27274,0.30499 -2.18163,0.10551 -2.9636,-0.40522c-0.63453,0.5295 -1.40411,0.9033 -2.27302,1.03642c0,0 -0.23389,0.03119 -0.45679,-0.07262c-0.12161,0.00169 -0.20885,-0.02012 -0.20885,-0.02012l-0.43039,-0.11917c-0.90302,-0.41242 -1.50056,-0.97933 -2.24083,-1.63211c-2.57463,-3.37536 1.54831,-9.81532 5.59865,-6.96184c2.34182,1.64982 2.36802,4.60611 1.01274,6.64715c0.42954,0.19779 0.93625,0.2468 1.59829,0.07229l0.1755,-0.06083c0,0 0.71151,-0.23717 0.94868,0.47434zM244.76409,177.04988c0,0 -0.47294,-0.58209 0.10914,-1.05503c0.58209,-0.47294 1.05503,0.10914 1.05503,0.10914c0.29944,0.36897 0.56568,0.727 0.83228,1.042c0.81701,-1.40821 0.74212,-3.38382 -0.74007,-4.46599c-2.42874,-1.77327 -5.33725,2.61014 -3.66733,4.68984c0.58762,0.50947 1.04021,0.98328 1.75917,1.29097l0.18499,0.03467c0,0 0.06271,0.01568 0.14671,0.05624c0.49671,-0.05984 0.94365,-0.24274 1.32797,-0.5123c-0.33014,-0.35689 -0.65831,-0.75976 -1.00789,-1.18955z" fill="#000000" stroke-width="0.5"/><path d="M227.45483,196.73884v-33.47767h25.09035v33.47767z" fill="none" stroke-width="0"/></g></g></svg>