<svg version="1.1" xmlns="http://www.w3.org/2000/svg" xmlns:xlink="http://www.w3.org/1999/xlink" width="25.09035" height="33.47767" viewBox="0,0,25.09035,33.47767"><g transform="translate(-227.45483,-163.26117)"><g data-paper-data="{&quot;isPaintingLayer&quot;:true}" fill-rule="nonzero" stroke="none" stroke-linecap="butt" stroke-linejoin="miter" stroke-miterlimit="10" stroke-dasharray="" stroke-dashoffset="0" style="mix-blend-mode: normal"><path d="M246.79957,179.64572c-0.53033,0.53033 -1.06066,0 -1.06066,0l-0.20221,-0.24302c-0.99553,-1.79205 -2.00519,-2.37248 -3.27659,-3.30295l-0.0101,0.02526c0,0.89423 0,1.78846 0,2.68269c0,0 0,0.75 -0.75,0.75c-0.75,0 -0.75,-0.75 -0.75,-0.75c0,-1.4574 -0.84529,-7.7 1.04021,-8.24618c2.31677,-0.67111 7.01631,1.48081 4.58601,4.27414c-0.2823,0.32447 -1.06496,0.55294 -1.83229,0.71497c1.02498,0.9874 2.03489,2.63923 2.304,3.12361l-0.04836,-0.08917c0,0 0.53033,0.53033 0,1.06066zM245.75552,173.20624c-0.06799,-0.81011 -2.9456,-1.19492 -3.46881,-1.22928c-0.66022,-0.04336 -0.03672,1.32294 -0.03672,1.98459c0,0.1447 0,0.2894 0,0.4341l0.45451,-0.0385c0.33086,-0.05947 3.11783,-0.35469 3.05101,-1.1509z" fill="#000000" stroke-width="0.5"/><path d="M227.45483,196.73884v-33.47767h25.09035v33.47767z" fill="none" stroke-width="0"/></g></g></svg>