<svg version="1.1" xmlns="http://www.w3.org/2000/svg" xmlns:xlink="http://www.w3.org/1999/xlink" width="25.09035" height="33.47767" viewBox="0,0,25.09035,33.47767"><g transform="translate(-227.45483,-163.26117)"><g data-paper-data="{&quot;isPaintingLayer&quot;:true}" fill-rule="nonzero" stroke="none" stroke-linecap="butt" stroke-linejoin="miter" stroke-miterlimit="10" stroke-dasharray="" stroke-dashoffset="0" style="mix-blend-mode: normal"><path d="M246.17082,171.37388c-0.33541,0.67082 -1.00623,0.33541 -1.00623,0.33541l-0.41414,-0.24061c-1.35196,-0.25116 -3.46342,-0.15585 -3.30211,1.65934c1.02703,1.89056 4.19244,0.42767 5.51604,2.40892c2.74282,4.10565 -3.87218,5.0201 -6.29528,4.29682c0,0 -0.71837,-0.21551 -0.50286,-0.93388c0.21551,-0.71837 0.93388,-0.50286 0.93388,-0.50286c1.1695,0.35281 2.39072,0.63286 3.57858,0.17759c0.88414,-0.33886 1.81686,-1.86144 0.71612,-2.5254c-2.02185,-1.21956 -3.97511,0.02407 -5.38163,-2.48491c-0.2486,-3.08017 2.32379,-4.04998 5.00559,-3.57143l0.81663,0.37477c0,0 0.67082,0.33541 0.33541,1.00623z" fill="#000000" stroke-width="0.5"/><path d="M227.45483,196.73884v-33.47767h25.09035v33.47767z" fill="none" stroke-width="0"/></g></g></svg>