<svg version="1.1" xmlns="http://www.w3.org/2000/svg" xmlns:xlink="http://www.w3.org/1999/xlink" width="25.09035" height="33.47767" viewBox="0,0,25.09035,33.47767"><g transform="translate(-227.45483,-163.26117)"><g data-paper-data="{&quot;isPaintingLayer&quot;:true}" fill-rule="nonzero" stroke="none" stroke-linecap="butt" stroke-linejoin="miter" stroke-miterlimit="10" stroke-dasharray="" stroke-dashoffset="0" style="mix-blend-mode: normal"><path d="M239.99535,170.81446c0.14709,-0.73544 0.88252,-0.58835 0.88252,-0.58835l0.23753,0.06236c2.05128,0 4.10256,0 6.15385,0c0,0 0.75,0 0.75,0.75c0,0.75 -0.75,0.75 -0.75,0.75c-0.88563,0 -1.77127,0 -2.6569,0c0.0126,0.04884 0.0165,0.08005 0.0165,0.08005l0.08271,0.70841c0,2.28205 0,4.5641 0,6.84615c0,0 0,0.75 -0.75,0.75c-0.75,0 -0.75,-0.75 -0.75,-0.75c0,-2.28205 0,-4.5641 0,-6.84615l-0.07113,-0.52236c0,0 -0.01476,-0.11811 0.01452,-0.2661c-0.67985,0 -1.3597,0 -2.03955,0l-0.5317,-0.09149c0,0 -0.73544,-0.14709 -0.58835,-0.88252z" fill="#000000" stroke-width="0.5"/><path d="M227.45483,196.73884v-33.47767h25.09035v33.47767z" fill="none" stroke-width="0"/></g></g></svg>