<svg version="1.1" xmlns="http://www.w3.org/2000/svg" xmlns:xlink="http://www.w3.org/1999/xlink" width="25.09035" height="33.47767" viewBox="0,0,25.09035,33.47767"><g transform="translate(-227.45483,-163.26117)"><g data-paper-data="{&quot;isPaintingLayer&quot;:true}" fill-rule="nonzero" stroke="none" stroke-linecap="butt" stroke-linejoin="miter" stroke-miterlimit="10" stroke-dasharray="" stroke-dashoffset="0" style="mix-blend-mode: normal"><path d="M246.75991,171.29601c0.74246,0.10607 0.6364,0.84853 0.6364,0.84853l-0.06939,0.4324c0,1.73741 0.52685,4.55354 -0.80015,5.95449c-1.65211,1.74419 -5.04966,1.32923 -5.8874,-1.08818c-0.54277,-1.56624 -0.19707,-3.70714 -0.19707,-5.32786c0,0 0,-0.75 0.75,-0.75c0.75,0 0.75,0.75 0.75,0.75c0,1.45911 -0.33326,3.40396 0.11062,4.82599c0.41609,1.33297 2.47532,1.52821 3.34337,0.60413c0.96795,-1.03043 0.43062,-3.71066 0.43062,-4.96858l0.08446,-0.64453c0,0 0.10607,-0.74246 0.84853,-0.6364z" fill="#000000" stroke-width="0.5"/><path d="M227.45483,196.73884v-33.47767h25.09035v33.47767z" fill="none" stroke-width="0"/></g></g></svg>