<svg version="1.1" xmlns="http://www.w3.org/2000/svg" xmlns:xlink="http://www.w3.org/1999/xlink" width="25.09035" height="33.47767" viewBox="0,0,25.09035,33.47767"><g transform="translate(-227.45483,-163.26117)"><g data-paper-data="{&quot;isPaintingLayer&quot;:true}" fill-rule="nonzero" stroke="none" stroke-linecap="butt" stroke-linejoin="miter" stroke-miterlimit="10" stroke-dasharray="" stroke-dashoffset="0" style="mix-blend-mode: normal"><path d="M247.72265,171.0466c0.43039,0.43039 0.16222,0.86077 0.04586,1.0077c-0.63876,1.80213 -1.20431,4.20364 -2.37096,5.67497c-0.45823,0.5779 -0.79919,1.50497 -1.53089,1.59744c-0.76629,0.09684 -1.29595,-1.52998 -1.52253,-2.08166c-0.7595,-1.84925 -1.88628,-3.71302 -1.9018,-5.74505c0,0 0,-0.75 0.75,-0.75c0.75,0 0.75,0.75 0.75,0.75c-0.01479,1.4922 0.822,2.89218 1.40042,4.24191c0.23111,0.53931 0.57716,1.04999 0.66816,1.62903c0.53215,-2.03442 1.67984,-3.99392 2.39965,-5.9734l0.25144,-0.35095c0,0 0.53033,-0.53033 1.06066,0z" fill="#000000" stroke-width="0.5"/><path d="M227.45483,196.73884v-33.47767h25.09035v33.47767z" fill="none" stroke-width="0"/></g></g></svg>