<svg version="1.1" xmlns="http://www.w3.org/2000/svg" xmlns:xlink="http://www.w3.org/1999/xlink" width="25.09035" height="33.47767" viewBox="0,0,25.09035,33.47767"><g transform="translate(-227.45484,-163.26117)"><g data-paper-data="{&quot;isPaintingLayer&quot;:true}" fill-rule="nonzero" stroke="none" stroke-linecap="butt" stroke-linejoin="miter" stroke-miterlimit="10" stroke-dasharray="" stroke-dashoffset="0" style="mix-blend-mode: normal"><path d="M249.57695,170.75002c0.75,0 0.75,0.75 0.75,0.75l-0.00221,0.59598c-0.15293,1.98803 0.22731,7.6136 -2.80608,7.3725c-0.77257,-0.06141 -1.80141,-1.17767 -2.39623,-2.33977c-0.71603,1.72767 -1.89562,3.25193 -3.58942,1.38231c-1.33636,-1.47509 -1.01375,-4.88154 -1.01375,-6.70333c0,0 0,-0.75 0.75,-0.75c0.75,0 0.75,0.75 0.75,0.75c0,1.54552 0.73516,9.19667 2.06275,3.96452c0.10668,-0.42045 0.19877,-0.84446 0.29808,-1.26671l0.14893,-0.81911c0.05798,-0.35653 0.36733,-0.6287 0.74024,-0.6287c0.41421,0 0.75,0.33579 0.75,0.75v0.92308h-0.14848c0.40454,1.34046 0.94979,2.89434 1.9183,3.26229c0.63267,0.24036 0.53753,-1.2564 0.64844,-1.92404c0.2233,-1.34418 0.28718,-2.73004 0.39164,-4.08808l-0.00221,-0.48094c0,0 0,-0.75 0.75,-0.75z" fill="#000000" stroke-width="0.5"/><path d="M227.45485,196.73885v-33.47767h25.09035v33.47767z" fill="none" stroke-width="0"/></g></g></svg>