<svg version="1.1" xmlns="http://www.w3.org/2000/svg" xmlns:xlink="http://www.w3.org/1999/xlink" width="25.09035" height="33.47767" viewBox="0,0,25.09035,33.47767"><g transform="translate(-227.45484,-163.26117)"><g data-paper-data="{&quot;isPaintingLayer&quot;:true}" fill-rule="nonzero" stroke="none" stroke-linecap="butt" stroke-linejoin="miter" stroke-miterlimit="10" stroke-dasharray="" stroke-dashoffset="0" style="mix-blend-mode: normal"><path d="M247.55546,179.52774c-0.33541,0.67082 -1.00623,0.33541 -1.00623,0.33541l-0.57613,-0.30159c-0.83569,-0.63809 -1.65879,-1.55597 -2.42433,-2.58085c-0.52122,0.88921 -0.96719,1.787 -1.26031,2.67956c0,0 -0.23717,0.71151 -0.94868,0.47434c-0.71151,-0.23717 -0.47434,-0.94868 -0.47434,-0.94868c0.4009,-1.18766 1.03636,-2.37093 1.758,-3.53204c-0.82853,-1.26569 -1.55303,-2.5789 -2.10193,-3.66461c0,0 -0.33541,-0.67082 0.33541,-1.00623c0.67082,-0.33541 1.00623,0.33541 1.00623,0.33541c0.41867,0.84866 0.98876,1.91068 1.64607,2.97183c0.75523,-1.12396 1.53726,-2.21958 2.20421,-3.26985l0.33319,-0.35844c0,0 0.53033,-0.53033 1.06066,0c0.53033,0.53033 0,1.06066 0,1.06066l-0.12835,0.1031c-0.76658,1.20188 -1.71667,2.486 -2.58589,3.80541c0.78341,1.11132 1.63766,2.11342 2.48007,2.73039l0.34695,0.15995c0,0 0.67082,0.33541 0.33541,1.00623z" fill="#000000" stroke-width="0.5"/><path d="M227.45485,196.73885v-33.47767h25.09035v33.47767z" fill="none" stroke-width="0"/></g></g></svg>