<svg version="1.1" xmlns="http://www.w3.org/2000/svg" xmlns:xlink="http://www.w3.org/1999/xlink" width="25.09035" height="33.47767" viewBox="0,0,25.09035,33.47767"><g transform="translate(-227.45484,-163.26117)"><g data-paper-data="{&quot;isPaintingLayer&quot;:true}" fill-rule="nonzero" stroke="none" stroke-linecap="butt" stroke-linejoin="miter" stroke-miterlimit="10" stroke-dasharray="" stroke-dashoffset="0" style="mix-blend-mode: normal"><path d="M244.24011,179.96561c-0.69636,0.27854 -0.9749,-0.41781 -0.9749,-0.41781l-0.20749,-0.66316c0,-0.98656 0,-1.97311 0,-2.95967c-0.99117,-0.68447 -2.65648,-3.28121 -3.00385,-3.74418c0,0 -0.45,-0.6 0.15,-1.05c0.6,-0.45 1.05,0.15 1.05,0.15c0.55831,0.74473 1.12466,1.48513 1.73471,2.18809c0.28951,0.3336 0.3198,1.38055 0.68608,1.13368c1.00504,-0.67739 1.8862,-2.43361 2.60997,-3.3987l0.12981,-0.19679c0,0 0.41603,-0.62404 1.04006,-0.20801c0.62404,0.41603 0.20801,1.04006 0.20801,1.04006l-0.17788,0.26474c-0.66911,0.89209 -1.7214,2.73748 -2.92692,3.56782c0,1.07098 0,2.14196 0,3.21295l0.1002,0.10607c0,0 0.27854,0.69636 -0.41781,0.9749z" fill="#000000" stroke-width="0.5"/><path d="M227.45485,196.73885v-33.47767h25.09035v33.47767z" fill="none" stroke-width="0"/></g></g></svg>