<svg version="1.1" xmlns="http://www.w3.org/2000/svg" xmlns:xlink="http://www.w3.org/1999/xlink" width="25.09035" height="33.47767" viewBox="0,0,25.09035,33.47767"><g transform="translate(-227.45484,-163.26117)"><g data-paper-data="{&quot;isPaintingLayer&quot;:true}" fill-rule="nonzero" stroke="none" stroke-linecap="butt" stroke-linejoin="miter" stroke-miterlimit="10" stroke-dasharray="" stroke-dashoffset="0" style="mix-blend-mode: normal"><path d="M240.05772,172.4231c0,-0.75 0.75,-0.75 0.75,-0.75h0.61538c1.37409,0.001 2.54745,-0.14657 3.78368,-0.15425l-0.01157,-0.23145l1.49242,-0.07462c0.01428,-0.00081 0.02867,-0.00122 0.04316,-0.00122c0.41421,0 0.75,0.33579 0.75,0.75c0,0.23943 -0.1122,0.45266 -0.28689,0.58998l-0.72455,0.57964c-1.30563,1.5075 -2.46816,4.34987 -4.09788,5.44046c-0.38956,0.26069 0.89059,-0.36008 1.35933,-0.36008c1.28205,0 2.5641,0 3.84615,0c0,0 0.75,0 0.75,0.75c0,0.75 -0.75,0.75 -0.75,0.75c-1.54877,0 -3.3086,0.20966 -4.84615,0c-0.55477,-0.07565 -1.43157,0.15932 -1.64067,-0.36008c-0.27023,-0.67123 0.40566,-1.39078 0.66364,-2.06681c0.58698,-1.53812 1.80074,-3.06881 2.93584,-4.38657c-1.03154,0.30162 -2.1864,0.27427 -3.26651,0.275h-0.61538c0,0 -0.75,0 -0.75,-0.75z" fill="#000000" stroke-width="0.5"/><path d="M227.45485,196.73885v-33.47767h25.09035v33.47767z" fill="none" stroke-width="0"/></g></g></svg>