<svg version="1.1" xmlns="http://www.w3.org/2000/svg" xmlns:xlink="http://www.w3.org/1999/xlink" width="25.09035" height="33.47767" viewBox="0,0,25.09035,33.47767"><g transform="translate(-227.45483,-163.26117)"><g data-paper-data="{&quot;isPaintingLayer&quot;:true}" fill-rule="nonzero" stroke="none" stroke-linecap="butt" stroke-linejoin="miter" stroke-miterlimit="10" stroke-dasharray="" stroke-dashoffset="0" style="mix-blend-mode: normal"><path d="M244.70034,176.21962c-0.12065,-0.77041 -0.26787,-1.37111 -0.43749,-1.39272c-4.10932,-0.52338 -2.78789,5.38475 -0.53643,2.71225c0.11118,-0.22742 0.22236,-0.45484 0.33354,-0.68225l0.20063,-0.31138c0,0 0.1637,-0.24554 0.43975,-0.3259zM244.95668,178.39382c-3.71975,3.97251 -7.43901,-2.53841 -2.85673,-4.57063c4.19395,-1.86 4.16184,2.70224 4.45404,5.60219c0,0 0.07463,0.74628 -0.67165,0.82091c-0.74628,0.07463 -0.82091,-0.67165 -0.82091,-0.67165c-0.01672,-0.16854 -0.05222,-0.61977 -0.10475,-1.18081z" fill="#000000" stroke-width="0.5"/><path d="M227.45483,196.73884v-33.47767h25.09035v33.47767z" fill="none" stroke-width="0"/></g></g></svg>