<svg version="1.1" xmlns="http://www.w3.org/2000/svg" xmlns:xlink="http://www.w3.org/1999/xlink" width="25.09035" height="33.47767" viewBox="0,0,25.09035,33.47767"><g transform="translate(-227.45484,-163.26117)"><g data-paper-data="{&quot;isPaintingLayer&quot;:true}" fill-rule="nonzero" stroke="none" stroke-linecap="butt" stroke-linejoin="miter" stroke-miterlimit="10" stroke-dasharray="" stroke-dashoffset="0" style="mix-blend-mode: normal"><path d="M241.78848,175.08554c0,0.06124 0,0.12248 0,0.18371c0,0.8659 -0.85728,2.18547 -0.09487,2.59598c2.16942,1.16811 5.28414,-2.03558 2.35688,-3.16721c-0.71711,0.01547 -1.2597,-0.00317 -1.95035,0.21267l-0.03025,0.05951c0,0 -0.11604,0.07736 -0.28141,0.11532zM241.78848,173.44051c0.88609,-0.23914 1.61148,-0.22929 2.54568,-0.21542c5.69713,2.31371 -0.34168,8.74401 -3.64312,5.75587c-0.51049,-0.46204 -0.4017,-1.82698 -0.40256,-2.40402c-0.00362,-2.43589 0,-4.8718 0,-7.30769c0,0 0,-0.75 0.75,-0.75c0.75,0 0.75,0.75 0.75,0.75c0,1.39042 0,2.78084 0,4.17126z" fill="#000000" stroke-width="0.5"/><path d="M227.45485,196.73885v-33.47767h25.09035v33.47767z" fill="none" stroke-width="0"/></g></g></svg>