<svg version="1.1" xmlns="http://www.w3.org/2000/svg" xmlns:xlink="http://www.w3.org/1999/xlink" width="25.09035" height="33.47767" viewBox="0,0,25.09035,33.47767"><g transform="translate(-227.45484,-163.26117)"><g data-paper-data="{&quot;isPaintingLayer&quot;:true}" fill-rule="nonzero" stroke="none" stroke-linecap="butt" stroke-linejoin="miter" stroke-miterlimit="10" stroke-dasharray="" stroke-dashoffset="0" style="mix-blend-mode: normal"><path d="M245.80477,174.64161c-0.29544,0.68936 -0.9848,0.39392 -0.9848,0.39392l-0.39011,-0.18469c-2.2616,-0.4557 -3.79474,0.19178 -2.66534,2.81194c0.43054,0.99884 2.97005,0.73224 3.70847,0.78121c0,0 0.74834,0.04989 0.69845,0.79823c-0.04989,0.74834 -0.79823,0.69845 -0.79823,0.69845c-1.53134,-0.10265 -4.01018,0.14181 -4.90692,-1.52648c-1.94861,-3.62521 0.90589,-5.70007 4.25774,-5.03422l0.68681,0.27685c0,0 0.68936,0.29544 0.39392,0.9848z" fill="#000000" stroke-width="0.5"/><path d="M227.45485,196.73885v-33.47767h25.09035v33.47767z" fill="none" stroke-width="0"/></g></g></svg>